<svg width="20" height="20" viewBox="0 0 20 20" fill="none" xmlns="http://www.w3.org/2000/svg">
<path fill-rule="evenodd" clip-rule="evenodd" d="M0.75951 3.14258C0 4.51681 0 6.34454 0 10C0 13.6555 0 15.4832 0.75951 16.8574C1.31375 17.8602 2.13977 18.6863 3.14258 19.2405C4.51681 20 6.34454 20 10 20C13.6555 20 15.4832 20 16.8574 19.2405C17.8602 18.6863 18.6863 17.8602 19.2405 16.8574C20 15.4832 20 13.6555 20 10C20 6.34454 20 4.51681 19.2405 3.14258C18.6863 2.13977 17.8602 1.31375 16.8574 0.75951C15.4832 0 13.6555 0 10 0C6.34454 0 4.51681 0 3.14258 0.75951C2.13977 1.31375 1.31375 2.13977 0.75951 3.14258ZM10 5.21744C7.35869 5.21744 5.21744 7.35869 5.21744 10C5.21744 12.6414 7.35869 14.7827 10 14.7827C12.6414 14.7827 14.7827 12.6414 14.7827 10C14.7827 7.35869 12.6414 5.21744 10 5.21744ZM13.9128 3.91248C13.9128 3.19211 14.4967 2.60813 15.2171 2.60813C15.9375 2.60813 16.5215 3.19211 16.5215 3.91248C16.5215 4.63285 15.9375 5.21683 15.2171 5.21683C14.4967 5.21683 13.9128 4.63285 13.9128 3.91248ZM10.0006 6.34842C7.98355 6.34842 6.34842 7.98355 6.34842 10.0006C6.34842 12.0176 7.98355 13.6528 10.0006 13.6528C12.0176 13.6528 13.6528 12.0176 13.6528 10.0006C13.6528 7.98355 12.0176 6.34842 10.0006 6.34842Z" fill="white"/>
</svg>
