<svg width="24" height="17" viewBox="0 0 24 17" fill="none" xmlns="http://www.w3.org/2000/svg">
<path d="M23.469 2.42901L23.499 2.62501C23.209 1.59601 22.426 0.802013 21.431 0.513013L21.41 0.508013C19.5391 1.37091e-05 12.0101 1.382e-05 12.0101 1.382e-05C12.0101 1.382e-05 4.50024 -0.00998627 2.61026 0.508013C1.59627 0.802013 0.812284 1.59601 0.527288 2.60401L0.522288 2.62501C-0.176704 6.27601 -0.181704 10.663 0.553287 14.572L0.522288 14.374C0.812284 15.403 1.59527 16.197 2.59026 16.486L2.61126 16.491C4.48024 17 12.0111 17 12.0111 17C12.0111 17 19.5201 17 21.411 16.491C22.426 16.197 23.21 15.403 23.495 14.395L23.5 14.374C23.818 12.676 24 10.722 24 8.72601C24 8.65301 24 8.57901 23.999 8.50501C24 8.43701 24 8.35601 24 8.27501C24 6.27801 23.818 4.32401 23.469 2.42901ZM9.60818 12.151V4.85801L15.8741 8.51001L9.60818 12.151Z" fill="white"/>
</svg>
