<svg width="1603" height="1305" viewBox="0 0 1603 1305" fill="none" xmlns="http://www.w3.org/2000/svg">
<path fill-rule="evenodd" clip-rule="evenodd" d="M303.5 1010C582.128 1010 808 784.128 808 505.5C808 226.872 582.128 1 303.5 1C24.8723 1 -201 226.872 -201 505.5C-201 784.128 24.8723 1010 303.5 1010ZM303.5 1011C582.68 1011 809 784.68 809 505.5C809 226.32 582.68 0 303.5 0C24.3201 0 -202 226.32 -202 505.5C-202 784.68 24.3201 1011 303.5 1011Z" fill="#2F2F2F"/>
<path fill-rule="evenodd" clip-rule="evenodd" d="M1097.5 1304C1376.13 1304 1602 1078.13 1602 799.5C1602 520.872 1376.13 295 1097.5 295C818.872 295 593 520.872 593 799.5C593 1078.13 818.872 1304 1097.5 1304ZM1097.5 1305C1376.68 1305 1603 1078.68 1603 799.5C1603 520.32 1376.68 294 1097.5 294C818.32 294 592 520.32 592 799.5C592 1078.68 818.32 1305 1097.5 1305Z" fill="#2F2F2F"/>
</svg>
