<svg width="1643" height="1305" viewBox="0 0 1643 1305" fill="none" xmlns="http://www.w3.org/2000/svg">
<path fill-rule="evenodd" clip-rule="evenodd" d="M1299.5 1010C1020.87 1010 795 784.128 795 505.5C795 226.872 1020.87 1 1299.5 1C1578.13 1 1804 226.872 1804 505.5C1804 784.128 1578.13 1010 1299.5 1010ZM1299.5 1011C1020.32 1011 794 784.68 794 505.5C794 226.32 1020.32 0 1299.5 0C1578.68 0 1805 226.32 1805 505.5C1805 784.68 1578.68 1011 1299.5 1011Z" fill="#2F2F2F"/>
<path fill-rule="evenodd" clip-rule="evenodd" d="M505.5 1304C226.872 1304 1 1078.13 1 799.5C1 520.872 226.872 295 505.5 295C784.128 295 1010 520.872 1010 799.5C1010 1078.13 784.128 1304 505.5 1304ZM505.5 1305C226.32 1305 0 1078.68 0 799.5C0 520.32 226.32 294 505.5 294C784.68 294 1011 520.32 1011 799.5C1011 1078.68 784.68 1305 505.5 1305Z" fill="#2F2F2F"/>
</svg>
