<svg width="26" height="22" viewBox="0 0 26 22" fill="none" xmlns="http://www.w3.org/2000/svg">
<path d="M25.9355 3.19082C25.0059 3.59863 24.0152 3.86895 22.9824 4.0002C24.0449 3.36582 24.8559 2.36895 25.2371 1.16738C24.2465 1.75801 23.1527 2.1752 21.9871 2.40801C21.0465 1.40645 19.7059 0.786133 18.2434 0.786133C15.4059 0.786133 13.1215 3.08926 13.1215 5.9127C13.1215 6.31895 13.1559 6.70957 13.2402 7.08145C8.9793 6.87363 5.20898 4.83145 2.67617 1.72051C2.23398 2.4877 1.97461 3.36582 1.97461 4.31113C1.97461 6.08613 2.88867 7.65957 4.25117 8.57051C3.42773 8.55488 2.61992 8.31582 1.93555 7.93926C1.93555 7.95488 1.93555 7.97519 1.93555 7.99551C1.93555 10.4861 3.71211 12.5549 6.0418 13.0314C5.62461 13.1455 5.16992 13.2002 4.69805 13.2002C4.36992 13.2002 4.03867 13.1814 3.72773 13.1127C4.3918 15.1424 6.27617 16.6346 8.5168 16.683C6.77305 18.0471 4.55898 18.8689 2.16211 18.8689C1.7418 18.8689 1.33867 18.8502 0.935547 18.7986C3.20586 20.2627 5.89648 21.0986 8.79805 21.0986C18.2293 21.0986 23.3855 13.2861 23.3855 6.51426C23.3855 6.28769 23.3777 6.06895 23.3668 5.85176C24.384 5.12988 25.2387 4.22832 25.9355 3.19082Z" fill="white"/>
</svg>
