<svg width="22" height="26" viewBox="0 0 22 26" fill="none" xmlns="http://www.w3.org/2000/svg">
<path d="M21.6222 13.0991C21.3639 11.9767 20.4458 11.1488 19.3408 11.0256C16.7246 10.7333 14.0754 10.7319 11.4391 10.7333C8.80173 10.7319 6.15304 10.7333 3.53606 11.0256C2.43159 11.1491 1.51405 11.977 1.25599 13.0991C0.8882 14.6974 0.883789 16.442 0.883789 18.0877C0.883789 19.7334 0.883789 21.4778 1.25158 23.076C1.50964 24.1981 2.42718 25.0261 3.5322 25.1496C6.14863 25.4421 8.79732 25.4432 11.4344 25.4421C14.0718 25.4435 16.7199 25.4421 19.3372 25.1496C20.4417 25.0261 21.3598 24.1981 21.6178 23.076C21.9853 21.4778 21.9873 19.7334 21.9873 18.0877C21.987 16.4418 21.9897 14.6974 21.6222 13.0991ZM6.90323 14.3379H5.37583V22.454H3.95706V14.3379H2.45751V13.0084H6.90323V14.3379ZM10.7567 22.4543H9.48051V21.6865C8.97349 22.2677 8.49211 22.5511 8.02314 22.5511C7.61207 22.5511 7.32919 22.3846 7.20154 22.0281C7.13206 21.8152 7.08906 21.4783 7.08906 20.9815V15.4161H8.36419V20.598C8.36419 20.8969 8.36419 21.0521 8.37576 21.094C8.40637 21.2919 8.50314 21.3923 8.67408 21.3923C8.92993 21.3923 9.19736 21.1952 9.48024 20.7951V15.4161H10.7565L10.7567 22.4543ZM15.6017 20.3419C15.6017 20.9928 15.5578 21.4618 15.4727 21.7601C15.3023 22.2837 14.9612 22.5511 14.4539 22.5511C14.0001 22.5511 13.5623 22.2991 13.1358 21.7725V22.4546H11.8607V13.0084H13.1358V16.0933C13.5477 15.5863 13.985 15.3298 14.4539 15.3298C14.9612 15.3298 15.3025 15.597 15.4727 16.1239C15.5584 16.407 15.6017 16.8724 15.6017 17.5388V20.3419ZM20.4146 19.1676H17.8641V20.4152C17.8641 21.0667 18.0772 21.392 18.5156 21.392C18.8296 21.392 19.0124 21.2214 19.0852 20.8806C19.0971 20.8114 19.1139 20.528 19.1139 20.0165H20.4149V20.2026C20.4149 20.6137 20.3992 20.8969 20.3876 21.0242C20.3449 21.3066 20.2445 21.5627 20.0899 21.7882C19.7367 22.2994 19.2134 22.5514 18.5473 22.5514C17.8801 22.5514 17.3723 22.3112 17.0036 21.8307C16.7332 21.4783 16.5942 20.9236 16.5942 20.1756V17.7105C16.5942 16.9582 16.7175 16.4078 16.9885 16.0522C17.3568 15.5705 17.8644 15.3307 18.5159 15.3307C19.1558 15.3307 19.6631 15.5705 20.0204 16.0522C20.2875 16.4078 20.4152 16.9582 20.4152 17.7105V19.1676H20.4146Z" fill="white"/>
<path d="M18.5042 16.478C18.0779 16.478 17.8643 16.8036 17.8643 17.4543V18.1055H19.1394V17.4543C19.1391 16.8036 18.926 16.478 18.5042 16.478Z" fill="white"/>
<path d="M13.7718 16.478C13.5617 16.478 13.3489 16.5773 13.1357 16.7882V21.0779C13.3486 21.2913 13.5617 21.3922 13.7718 21.3922C14.1396 21.3922 14.3265 21.0779 14.3265 20.4424V17.4383C14.3265 16.8036 14.1396 16.478 13.7718 16.478Z" fill="white"/>
<path d="M14.4841 10.0845C14.9542 10.0845 15.4433 9.79888 15.9564 9.21108V9.98691H17.2453V2.87402H15.9564V8.31035C15.6707 8.71398 15.4 8.91359 15.1422 8.91359C14.9696 8.91359 14.8682 8.81158 14.84 8.6117C14.8243 8.56952 14.8243 8.41264 14.8243 8.11074V2.87402H13.5396V8.49838C13.5396 9.00072 13.5826 9.34066 13.6537 9.55598C13.7833 9.91633 14.0692 10.0845 14.4841 10.0845Z" fill="white"/>
<path d="M5.51112 6.12133V9.98698H6.94037V6.12133L8.65966 0.442383H7.21442L6.23926 4.19058L5.22467 0.442383H3.7207C4.02205 1.32712 4.33552 2.21626 4.63687 3.10182C5.09536 4.43292 5.38154 5.43648 5.51112 6.12133Z" fill="white"/>
<path d="M10.5754 10.0846C11.2211 10.0846 11.7229 9.8417 12.0788 9.35646C12.3493 9.00052 12.4789 8.43974 12.4789 7.68376V5.19305C12.4789 4.43266 12.3496 3.87684 12.0788 3.5176C11.7229 3.03098 11.2214 2.78809 10.5754 2.78809C9.93301 2.78809 9.4315 3.03098 9.07474 3.5176C8.80097 3.87684 8.67139 4.43266 8.67139 5.19305V7.68376C8.67139 8.43974 8.80097 9.00052 9.07474 9.35646C9.43123 9.8417 9.93301 10.0846 10.5754 10.0846ZM9.9603 4.93472C9.9603 4.27661 10.1599 3.94852 10.5754 3.94852C10.9909 3.94852 11.1899 4.27634 11.1899 4.93472V7.92666C11.1899 8.58476 10.9909 8.91395 10.5754 8.91395C10.1599 8.91395 9.9603 8.58476 9.9603 7.92666V4.93472Z" fill="white"/>
</svg>
