<svg width="25" height="25" viewBox="0 0 25 25" fill="none" xmlns="http://www.w3.org/2000/svg">
<g clip-path="url(#clip0_143_19)">
<path d="M23.7459 11.2509C23.4145 11.2509 23.0967 11.3825 22.8623 11.6169C22.628 11.8512 22.4964 12.169 22.4964 12.5004V22.4971H2.50307V2.5038H12.4997C12.8311 2.5038 13.149 2.37215 13.3833 2.13781C13.6176 1.90346 13.7493 1.58563 13.7493 1.25422C13.7493 0.92281 13.6176 0.604974 13.3833 0.370632C13.149 0.13629 12.8311 0.00463867 12.4997 0.00463867H1.25349C0.922077 0.00463867 0.604242 0.13629 0.3699 0.370632C0.135558 0.604974 0.00390625 0.92281 0.00390625 1.25422V23.7467C0.00390625 24.0781 0.135558 24.3959 0.3699 24.6303C0.604242 24.8646 0.922077 24.9962 1.25349 24.9962H23.7459C24.0773 24.9962 24.3952 24.8646 24.6295 24.6303C24.8639 24.3959 24.9955 24.0781 24.9955 23.7467V12.5004C24.9955 12.169 24.8639 11.8512 24.6295 11.6169C24.3952 11.3825 24.0773 11.2509 23.7459 11.2509Z" fill="#6A4BBB"/>
<path d="M24.2223 0.103167C23.8062 -0.0692754 24.0486 0.0394381 17.4983 0.00444983C17.1669 0.00444983 16.8491 0.136102 16.6147 0.370443C16.3804 0.604785 16.2488 0.922621 16.2488 1.25403C16.2488 1.58544 16.3804 1.90328 16.6147 2.13762C16.8491 2.37196 17.1669 2.50361 17.4983 2.50361H20.7298L11.6178 11.6156C11.4985 11.7308 11.4033 11.8687 11.3378 12.0212C11.2723 12.1736 11.2378 12.3376 11.2364 12.5035C11.2349 12.6694 11.2665 12.834 11.3294 12.9875C11.3922 13.1411 11.485 13.2806 11.6023 13.3979C11.7196 13.5153 11.8592 13.6081 12.0127 13.6709C12.1663 13.7337 12.3308 13.7653 12.4968 13.7639C12.6627 13.7625 12.8267 13.728 12.9791 13.6625C13.1316 13.597 13.2694 13.5018 13.3847 13.3825L22.4967 4.27177V7.50193C22.4967 7.83334 22.6283 8.15118 22.8627 8.38552C23.097 8.61986 23.4148 8.75151 23.7462 8.75151C24.0776 8.75151 24.3955 8.61986 24.6298 8.38552C24.8642 8.15118 24.9958 7.83334 24.9958 7.50193C24.9633 0.919142 25.072 1.19155 24.8996 0.77794C24.7722 0.472131 24.5286 0.229422 24.2223 0.103167Z" fill="#6A4BBB"/>
</g>
<defs>
<clipPath id="clip0_143_19">
<rect width="25" height="25" fill="white"/>
</clipPath>
</defs>
</svg>
