<svg width="142" height="60" viewBox="0 0 142 60" fill="none" xmlns="http://www.w3.org/2000/svg">
<g clip-path="url(#clip0_21_718)">
<path d="M0.557578 0H141.687V59.9998H0V0H0.557578ZM140.571 1.12021H1.11516V58.8796H140.571V1.12021Z" fill="white"/>
<path d="M54.945 9.93471H51.4148V19.3008H53.5461V16.3572H54.945C56.7833 16.3572 58.2088 14.9255 58.2088 13.146C58.2088 11.3663 56.7833 9.93471 54.945 9.93471ZM54.945 14.3501H53.5461V11.9417H54.945C55.5977 11.9417 56.0773 12.4636 56.0773 13.146C56.0773 13.8284 55.5977 14.3501 54.945 14.3501ZM64.1766 19.3008H66.4679L64.4832 15.8621C65.5088 15.3402 66.2016 14.2966 66.2016 13.146C66.2016 11.3663 64.7761 9.93474 63.0044 9.93474H59.2744V19.3008H61.4058V16.2233H62.4183L64.1766 19.3008ZM61.4058 11.9417H63.0044C63.5906 11.9417 64.0701 12.4636 64.0701 13.146C64.0701 13.8284 63.5906 14.3501 63.0044 14.3501H61.4058V11.9417ZM71.7832 19.4881C74.4609 19.4881 76.6323 17.3741 76.6323 14.6178C76.6323 11.8614 74.4609 9.74731 71.7832 9.74731C69.1056 9.74731 66.9343 11.8614 66.9343 14.6178C66.9343 17.3741 69.1056 19.4881 71.7832 19.4881ZM71.7832 17.4008C70.2646 17.4008 69.0657 16.2903 69.0657 14.6178C69.0657 12.9453 70.2646 11.8347 71.7832 11.8347C73.3019 11.8347 74.5008 12.9453 74.5008 14.6178C74.5008 16.2903 73.3019 17.4008 71.7832 17.4008ZM57.1962 30.8346C57.7024 30.3931 58.0089 29.7775 58.0089 29.0015C58.0089 27.3824 56.69 26.3255 55.0649 26.3255H51.4148V35.6916H55.3312C56.9964 35.6916 58.3419 34.6077 58.3419 32.9487C58.3419 31.9986 57.889 31.276 57.1962 30.8346ZM55.0649 28.3324C55.5577 28.3324 55.8775 28.6804 55.8775 29.162C55.8775 29.6437 55.5444 29.9916 55.0649 29.9916H53.5461V28.3324H55.0649V28.3324ZM55.3312 33.6846H53.5461V31.8916H55.3312C55.8641 31.8916 56.2105 32.2663 56.2105 32.788C56.2105 33.3099 55.8641 33.6845 55.3312 33.6845V33.6846ZM61.539 33.6311V26.3255H59.4076V35.6916H64.8694V33.6311H61.539ZM69.7184 35.8788C72.3961 35.8788 74.5674 33.7648 74.5674 31.0085C74.5674 28.2522 72.3961 26.1381 69.7184 26.1381C67.0408 26.1381 64.8694 28.2522 64.8694 31.0085C64.8694 33.7648 67.0408 35.8788 69.7184 35.8788ZM69.7184 33.7916C68.1998 33.7916 67.0009 32.681 67.0009 31.0085C67.0009 29.336 68.1998 28.2254 69.7184 28.2254C71.2371 28.2254 72.436 29.336 72.436 31.0085C72.436 32.681 71.2371 33.7916 69.7184 33.7916ZM80.2157 35.8788C81.9209 35.8788 83.4128 35.0359 84.2122 33.7113L82.3738 32.6408C81.9741 33.3634 81.1616 33.7916 80.2157 33.7916C78.5639 33.7916 77.4982 32.681 77.4982 31.0085C77.4982 29.336 78.5639 28.2255 80.2157 28.2255C81.1616 28.2255 81.9609 28.6537 82.3738 29.3761L84.2122 28.3057C83.3996 26.9811 81.9076 26.1381 80.2157 26.1381C77.4049 26.1381 75.3668 28.2522 75.3668 31.0085C75.3668 33.7649 77.4049 35.8789 80.2157 35.8789V35.8788ZM92.7512 35.6916L89.4741 30.8881L92.618 26.3255H90.1936L87.3426 30.3931V26.3255H85.2113V35.6916H87.3426V31.3565L90.3267 35.6916H92.7512ZM97.2005 35.8788C98.9056 35.8788 100.398 35.0359 101.197 33.7113L99.3586 32.6408C98.9589 33.3634 98.1464 33.7916 97.2005 33.7916C95.5487 33.7916 94.483 32.681 94.483 31.0085C94.483 29.336 95.5487 28.2255 97.2005 28.2255C98.1464 28.2255 98.9457 28.6537 99.3586 29.3761L101.197 28.3057C100.384 26.9811 98.8924 26.1381 97.2005 26.1381C94.3897 26.1381 92.3515 28.2522 92.3515 31.0085C92.3515 33.7649 94.3897 35.8789 97.2005 35.8789V35.8788ZM107.258 26.3255V29.9112H104.327V26.3255H102.196V35.6916H104.327V31.9719H107.258V35.6916H109.39V26.3255H107.258ZM116.916 35.6916H119.248L116.077 26.3255H113.359L110.189 35.6916H112.52L112.986 34.2197H116.45L116.916 35.6916H116.916ZM113.626 32.2126L114.718 28.774L115.811 32.2126H113.626ZM120.047 26.3254V35.6915H122.178V26.3254H120.047ZM128.972 26.3254V31.4099L125.375 26.3254H123.777V35.6915H125.908V30.6071L129.505 35.6915H131.104V26.3254H128.972H128.972ZM60.7398 42.7162H58.6083L56.0773 46.8774L53.5461 42.7162H51.4148V52.0823H53.5461V46.6366L55.9573 50.6105H56.1972L58.6083 46.6366V52.0823H60.7398V42.7162H60.7398ZM64.4698 50.0218V48.3626H67.8003V46.3289H64.4698V44.7767H68.1333V42.7162H62.3384V52.0823H68.1998V50.0218H64.4698V50.0218ZM73.1287 42.7162H69.3987V52.0823H73.1287C75.6998 52.0823 77.6581 50.0485 77.6581 47.3992C77.6581 44.7499 75.6998 42.7162 73.1287 42.7162V42.7162ZM73.1287 50.0218H71.5301V44.7767H73.1287C74.5941 44.7767 75.6065 45.7936 75.6065 47.3992C75.6065 49.0048 74.5941 50.0218 73.1287 50.0218ZM78.857 42.7162V52.0823H80.9884V42.7162H78.857ZM88.515 52.0823H90.8463L87.6758 42.7162H84.9582L81.7877 52.0823H84.119L84.5852 50.6105H88.0489L88.5151 52.0823H88.515ZM85.2246 48.6034L86.317 45.1648L87.4093 48.6034H85.2246Z" fill="white"/>
<path d="M29.4431 9.77422C29.4519 9.77422 29.4595 9.76838 29.4619 9.7601C29.4726 9.72452 29.491 9.67713 29.4917 9.67591C29.5265 9.5894 29.5756 9.5082 29.6355 9.43568C29.6374 9.43324 29.6754 9.38937 29.7064 9.36018C29.8703 9.20293 30.0927 9.11168 30.3209 9.10815C30.3212 9.10815 30.3214 9.10815 30.3217 9.10815C30.3275 9.10815 30.3335 9.10762 30.3391 9.10815C30.3394 9.10815 30.3398 9.10815 30.34 9.10815C30.6273 9.11114 30.9059 9.25616 31.0715 9.48824C31.0915 9.51635 31.1153 9.55546 31.1189 9.56199C31.2047 9.70865 31.2472 9.8818 31.2419 10.0502C31.2409 10.0753 31.2558 10.0987 31.2794 10.108C31.812 10.3238 37.5011 12.6271 38.4546 13.0131C38.5314 13.044 38.6193 13.0258 38.6775 12.9668C38.8423 12.7984 39.0714 12.6926 39.3098 12.6903C39.31 12.6903 39.3103 12.6903 39.3104 12.6903C39.3163 12.6903 39.3163 12.6903 39.3222 12.6903C39.3223 12.6903 39.3226 12.6903 39.3227 12.6903C39.6383 12.6931 39.9444 12.8727 40.0997 13.1521C40.148 13.2388 40.1813 13.3329 40.1993 13.4293C40.1993 13.4305 40.1998 13.4316 40.1998 13.4323C40.2003 13.4381 40.2109 13.5001 40.2132 13.551C40.2155 13.6136 40.212 13.6773 40.2014 13.7399C40.2003 13.7468 40.1993 13.7539 40.1975 13.7615C40.1924 13.7907 40.1848 13.8188 40.1767 13.8475C40.1767 13.848 40.1763 13.8487 40.1763 13.8492C40.1739 13.8562 40.1641 13.8884 40.1555 13.9112C40.1284 13.9826 40.0915 14.0491 40.0475 14.1112C39.9991 14.1784 39.995 14.2679 40.0376 14.3392C40.474 15.0655 42.667 18.7126 43.0955 19.4252C43.1368 19.494 43.2142 19.5325 43.2934 19.5236C43.326 19.5194 43.3598 19.5174 43.3929 19.5174C43.3929 19.5174 43.3936 19.5174 43.3941 19.5174C43.5967 19.5194 43.7964 19.5903 43.9506 19.7177C43.9519 19.7182 43.9529 19.7188 43.9529 19.7195C43.9554 19.7211 43.9774 19.7397 43.9774 19.7397C43.9973 19.7572 44.0142 19.7742 44.017 19.777C44.0367 19.7966 44.0531 19.8153 44.0531 19.8153C44.0619 19.8251 44.0642 19.8277 44.0642 19.8277C44.0897 19.8577 44.091 19.8602 44.098 19.869C44.098 19.8691 44.098 19.8691 44.0985 19.8693C44.1049 19.8786 44.1089 19.8831 44.12 19.8997C44.12 19.8998 44.1205 19.9001 44.1205 19.9002C44.1205 19.9003 44.1364 19.9226 44.1364 19.9226C44.1457 19.9377 44.1427 19.9329 44.1503 19.9455C44.1503 19.9455 44.1503 19.9455 44.1503 19.9457C44.1526 19.9485 44.1742 19.9849 44.1899 20.0164C44.191 20.0189 44.2038 20.0462 44.2038 20.0462C44.2202 20.0839 44.2225 20.0906 44.2225 20.0906C44.2329 20.1191 44.2417 20.1453 44.2422 20.1483C44.2464 20.1598 44.2469 20.1639 44.2469 20.1639C44.2469 20.165 44.2556 20.1958 44.2556 20.1958C44.2591 20.2105 44.2632 20.2291 44.2632 20.2291C44.2667 20.2478 44.2714 20.2732 44.2714 20.2732C44.2737 20.2884 44.276 20.3072 44.276 20.3072C44.2824 20.3637 44.2818 20.3751 44.2818 20.3751C44.2824 20.3842 44.2824 20.3935 44.2824 20.4028C44.283 20.404 44.283 20.4052 44.283 20.4066C44.283 20.4107 44.283 20.4211 44.283 20.4249C44.283 20.4263 44.283 20.4275 44.2824 20.4286C44.2818 20.4644 44.2795 20.5003 44.2749 20.536C44.2749 20.5369 44.2714 20.5579 44.2714 20.5581C44.2626 20.6146 44.2656 20.5918 44.2598 20.6184L44.2539 20.6418C44.2533 20.6434 44.2528 20.6449 44.2528 20.6465C44.251 20.652 44.247 20.6684 44.2452 20.6743C44.244 20.676 44.244 20.6776 44.2434 20.6792C44.2376 20.6989 44.2295 20.7209 44.2283 20.7243C44.223 20.7382 44.2149 20.7588 44.2144 20.7604C44.1985 20.7976 44.1916 20.8115 44.1899 20.8149C44.1823 20.8296 44.1718 20.8486 44.1684 20.8552C44.1677 20.8563 44.1672 20.8574 44.1666 20.8585C44.1631 20.8642 44.1474 20.8898 44.1474 20.89C44.1212 20.9324 44.127 20.9228 44.1106 20.9444C44.1106 20.9446 44.0944 20.9676 44.077 20.9886C44.0758 20.9898 44.0752 20.9909 44.074 20.9921C44.0699 20.9966 44.0536 21.015 44.049 21.0213C44.0472 21.0233 44.0455 21.0252 44.0437 21.027C44.0262 21.0455 44.0187 21.0525 44.0175 21.054C44.0169 21.054 44.0169 21.0541 44.0169 21.0543C44.0053 21.0655 43.9942 21.0764 43.982 21.0871C43.9634 21.1037 43.9616 21.1046 43.9529 21.112C43.9384 21.1239 43.9185 21.1387 43.9122 21.1432C43.911 21.1442 43.9099 21.1451 43.9087 21.1459C43.8935 21.1566 43.844 21.1891 43.8144 21.2052C43.8144 21.2052 43.8144 21.2054 43.8137 21.2054C43.812 21.2065 43.8102 21.2077 43.8079 21.2086C43.7381 21.2464 43.6956 21.3216 43.7003 21.4016C43.7491 22.3325 44.025 27.544 44.0735 28.4603C44.0775 28.5388 44.1258 28.6084 44.198 28.6392C44.2364 28.6545 44.2731 28.6736 44.308 28.6951C44.3378 28.7133 44.3068 28.687 44.3878 28.7507C44.3878 28.7508 44.407 28.7666 44.407 28.7666C44.4315 28.7872 44.4547 28.8091 44.4769 28.8323C44.4774 28.8326 44.4774 28.833 44.478 28.8331L44.4921 28.8479C44.524 28.8842 44.5264 28.8881 44.538 28.9031C44.5391 28.9047 44.5607 28.9347 44.5643 28.9403C44.5863 28.9723 44.5974 28.993 44.5997 28.9969C44.609 29.0136 44.6212 29.0371 44.6212 29.0371C44.6358 29.0662 44.6393 29.0743 44.6393 29.0743C44.6463 29.0918 44.6497 29.1001 44.655 29.1131L44.658 29.1214C44.6585 29.1225 44.6591 29.1237 44.6598 29.125C44.6825 29.1873 44.6981 29.2521 44.7057 29.3175V29.3177L44.708 29.3388C44.7115 29.379 44.7121 29.4336 44.7121 29.4362C44.7116 29.4585 44.7093 29.4879 44.7086 29.4981C44.708 29.5002 44.7081 29.5021 44.7081 29.5041C44.7068 29.5133 44.7058 29.5234 44.7051 29.5264C44.7051 29.5277 44.7051 29.5291 44.7051 29.5305C44.6959 29.5996 44.679 29.6677 44.6533 29.7323C44.6522 29.7342 44.6515 29.7362 44.6505 29.7382C44.6469 29.7468 44.6313 29.7841 44.6306 29.7844C44.6306 29.7845 44.6306 29.7848 44.6306 29.7849C44.6278 29.7909 44.6272 29.7924 44.6196 29.8072V29.8073C44.6196 29.8075 44.5712 29.8978 44.5159 29.9644C44.5147 29.9659 44.5136 29.9674 44.5124 29.9688C44.5124 29.9688 44.4938 29.9903 44.4874 29.997C44.4863 29.9988 44.4846 30.0006 44.4828 30.0022C44.4763 30.009 44.4746 30.0106 44.4746 30.0106C44.4543 30.0312 44.4339 30.0511 44.4117 30.0697C44.3983 30.0812 44.3978 30.0816 44.3925 30.0862C44.3849 30.0918 44.3763 30.0983 44.3763 30.0984C44.3763 30.0984 44.3763 30.0986 44.3763 30.0987C44.3581 30.112 44.3407 30.1246 44.322 30.1365C44.3093 30.1445 44.3086 30.1449 44.3041 30.1476C44.219 30.1989 44.2079 30.1987 44.1852 30.208C44.0771 30.2523 43.96 30.2705 43.8441 30.2659C43.765 30.2633 43.6921 30.3058 43.6555 30.3757C43.2515 31.1434 41.0817 35.2688 40.6656 36.0598C40.6265 36.1339 40.6358 36.2242 40.6894 36.2885C40.7575 36.37 40.814 36.463 40.853 36.5655C40.8576 36.5771 40.8611 36.5886 40.8658 36.6001C40.8838 36.653 40.8979 36.7069 40.9077 36.7666C40.9077 36.7682 40.9082 36.77 40.9082 36.7718C40.9088 36.7805 40.9141 36.8126 40.9141 36.8139C40.9257 36.9169 40.9211 37.022 40.9024 37.1225C40.9019 37.1251 40.9012 37.1275 40.9007 37.1301C40.8954 37.1517 40.8681 37.2631 40.8314 37.345C40.6439 37.7628 40.1526 38.0214 39.6883 37.9136C39.5124 37.8727 39.3508 37.7816 39.2212 37.6562C39.1614 37.5989 39.0731 37.583 38.9974 37.6163C38.0065 38.0502 31.825 40.76 31.0153 41.1151C30.9651 41.137 30.9309 41.1847 30.9258 41.2394C30.9258 41.2399 30.9257 41.2404 30.9257 41.241C30.9257 41.2419 30.9238 41.26 30.9231 41.2653C30.9231 41.2673 30.9227 41.2691 30.9224 41.2709C30.915 41.3273 30.901 41.3828 30.8801 41.4359C30.8793 41.4381 30.8785 41.4403 30.8774 41.4423C30.8751 41.4479 30.8667 41.4674 30.8628 41.4764C30.8614 41.4797 30.86 41.4828 30.8584 41.4859C30.8452 41.5123 30.8379 41.5258 30.8261 41.5452C30.808 41.575 30.7879 41.6035 30.7656 41.6304C30.7639 41.6323 30.7623 41.6343 30.7607 41.6362C30.7553 41.6421 30.7403 41.6586 30.7341 41.6657C30.7319 41.6682 30.7296 41.6706 30.7272 41.673C30.7104 41.6897 30.6886 41.7094 30.6816 41.7158C30.6798 41.7173 30.6782 41.7189 30.6765 41.7202C30.6616 41.7327 30.6553 41.7375 30.6452 41.7452C30.4012 41.9273 30.0364 41.9273 29.7926 41.7371C29.7759 41.7241 29.7548 41.7054 29.7474 41.6984C29.7456 41.6969 29.7438 41.6954 29.7422 41.6938C29.7303 41.6823 29.7163 41.668 29.711 41.6624C29.7092 41.6605 29.7072 41.6585 29.7055 41.6565C29.6641 41.6103 29.628 41.5598 29.599 41.5041C29.5963 41.4991 29.5821 41.4685 29.5782 41.4602C29.5775 41.4589 29.577 41.4575 29.5763 41.456C29.5763 41.456 29.5763 41.456 29.5763 41.4559C29.5717 41.4452 29.5612 41.4381 29.5496 41.4381C29.1687 41.4381 23.3652 41.4381 22.7423 41.4381C22.711 41.4381 22.6831 41.4585 22.6734 41.4884C22.6714 41.4949 22.6309 41.6052 22.5897 41.6775C22.4808 41.8681 22.3077 42.0172 22.107 42.1023C22.0313 42.1344 21.9821 42.2091 21.9821 42.2918C21.9814 43.3496 21.9814 49.8503 21.9814 50.8736C21.9814 50.951 22.0242 51.0218 22.0925 51.0571C22.1229 51.0719 22.152 51.089 22.1794 51.1081C22.1794 51.1081 22.1795 51.1083 22.1796 51.1083C22.1822 51.1102 22.2098 51.1293 22.2334 51.1488C22.2355 51.1505 22.2375 51.1521 22.2394 51.1539C22.2484 51.1618 22.2811 51.191 22.2811 51.191C22.2902 51.1999 22.2995 51.209 22.3083 51.2184C22.3118 51.2222 22.3121 51.2222 22.3156 51.226C22.3537 51.2674 22.3857 51.3098 22.4124 51.354C22.4135 51.3559 22.4147 51.3579 22.4158 51.3598C22.4209 51.3688 22.4411 51.4049 22.4411 51.4049C22.4618 51.4459 22.48 51.4884 22.4938 51.5318C22.4941 51.5322 22.4942 51.5328 22.4945 51.5335C22.4945 51.5335 22.4971 51.5422 22.4982 51.5458C22.4985 51.5471 22.4988 51.5483 22.4992 51.5494C22.5001 51.5521 22.5014 51.5575 22.5024 51.5601C22.5028 51.5614 22.503 51.5627 22.5033 51.5639C22.5076 51.5804 22.5126 51.6013 22.5126 51.6013C22.5163 51.6182 22.5206 51.6411 22.5206 51.6411C22.523 51.6563 22.5257 51.6763 22.5257 51.6763C22.5294 51.7081 22.5305 51.7265 22.5305 51.7265C22.5317 51.7454 22.5321 51.767 22.5321 51.7688C22.5325 51.7946 22.5306 51.8296 22.53 51.839C22.53 51.8402 22.5299 51.8416 22.5298 51.8429C22.5294 51.8488 22.529 51.8526 22.5288 51.8549C22.5287 51.8568 22.5284 51.8587 22.5283 51.8607C22.5236 51.9024 22.5215 51.9131 22.5186 51.9287C22.5124 51.9623 22.5041 51.9954 22.4936 52.028C22.4932 52.0296 22.4926 52.0311 22.4922 52.0326C22.4903 52.0379 22.4848 52.0541 22.4823 52.0609C22.4816 52.063 22.4808 52.0652 22.48 52.0673C22.4776 52.0734 22.4758 52.078 22.4758 52.078C22.4757 52.0785 22.4756 52.0789 22.4754 52.0792C22.4541 52.1318 22.4449 52.1485 22.4423 52.1529C22.4419 52.1533 22.4415 52.1539 22.4412 52.1544C22.4318 52.1719 22.4185 52.1949 22.4139 52.2026C22.4127 52.2048 22.4115 52.2069 22.4103 52.2089C22.384 52.2503 22.355 52.2898 22.3222 52.3258C22.3203 52.3278 22.3184 52.3299 22.3163 52.332C22.3093 52.3392 22.2863 52.3626 22.2777 52.3711C22.2754 52.3735 22.2729 52.3759 22.2706 52.3781C22.261 52.3869 22.2498 52.3967 22.2464 52.3995C22.2456 52.4002 22.2448 52.401 22.2438 52.4019C22.2283 52.4149 22.2076 52.4306 22.2012 52.4354C22.1999 52.4363 22.1987 52.4373 22.1973 52.4382C22.1778 52.4522 22.167 52.4595 22.151 52.4697C21.8795 52.6407 21.5047 52.6308 21.242 52.4343C21.2412 52.4337 21.2279 52.4238 21.2149 52.4134C21.2023 52.403 21.2065 52.4068 21.1961 52.3976L21.1764 52.38C21.1749 52.3787 21.1736 52.3775 21.1722 52.3763C21.1656 52.3701 21.1638 52.3684 21.1638 52.3684C21.1495 52.3544 21.1314 52.3353 21.1251 52.3288C21.1239 52.3273 21.1226 52.3259 21.1214 52.3244C21.0885 52.2875 21.0582 52.2478 21.0325 52.2056C21.0313 52.2035 21.0302 52.2017 21.0292 52.1996C21.0251 52.1928 21.012 52.1693 21.0062 52.159C21.0043 52.1558 21.0027 52.1525 21.0008 52.149C20.992 52.1306 20.9818 52.1088 20.9793 52.1029C20.9787 52.102 20.9783 52.1007 20.9779 52.0998C20.9755 52.0941 20.9699 52.0904 20.9639 52.0904C20.6487 52.0904 13.1206 52.0904 12.0176 52.0904C11.9403 52.0904 11.8693 52.1343 11.8344 52.2035C11.8167 52.2402 11.7957 52.2758 11.7722 52.3104C11.7691 52.315 11.6828 52.4343 11.586 52.5126C11.3149 52.732 10.9177 52.7823 10.5978 52.6301C10.4557 52.5623 10.3324 52.4585 10.2389 52.3297C10.2387 52.3295 10.2386 52.3293 10.2383 52.329L10.2351 52.3246C10.2351 52.3244 10.2351 52.3244 10.2349 52.3244C10.1221 52.1649 10.0608 51.9722 10.062 51.7733C10.0624 51.6983 10.0719 51.6232 10.09 51.5504L10.0914 51.5449C10.0914 51.5445 10.0915 51.5442 10.0916 51.544C10.1576 51.2893 10.3389 51.0722 10.5709 50.9486C10.6374 50.9135 10.6795 50.8446 10.6804 50.7691C10.6911 49.9241 10.7456 45.2119 10.7555 44.3649C10.7564 44.2908 10.7176 44.2221 10.6541 44.1846C10.6426 44.1782 10.6313 44.1713 10.6205 44.1641C10.6192 44.1634 10.6181 44.1625 10.6169 44.1616C10.6146 44.16 10.6058 44.154 10.6016 44.1512C10.5998 44.1501 10.5982 44.1487 10.5966 44.1475C10.5755 44.1321 10.555 44.1157 10.5355 44.0984C10.535 44.098 10.5346 44.0975 10.5342 44.0971C10.5321 44.0952 10.5228 44.0867 10.5153 44.0795C10.4967 44.0615 10.5121 44.0792 10.4731 44.0351C10.4586 44.0185 10.4436 43.9991 10.4385 43.9923C10.4375 43.991 10.4364 43.9896 10.4353 43.9882C10.4195 43.9662 10.4041 43.9438 10.3906 43.9203C10.3904 43.9201 10.3904 43.9199 10.3903 43.9198C10.3903 43.9198 10.3845 43.9095 10.3825 43.9059C10.3818 43.9046 10.3811 43.9034 10.3804 43.9021C10.358 43.8606 10.3391 43.8171 10.3249 43.7719C10.3246 43.7708 10.3242 43.7696 10.3239 43.7685C10.3235 43.7673 10.3188 43.7514 10.317 43.7452C10.3166 43.7434 10.3161 43.7418 10.3157 43.74C10.3147 43.7364 10.3139 43.7336 10.3135 43.7317C10.3128 43.7298 10.3124 43.7278 10.312 43.7258C10.2997 43.6727 10.2919 43.6189 10.291 43.5659C10.291 43.5651 10.291 43.564 10.291 43.5632C10.291 43.5558 10.2911 43.5086 10.2946 43.4742C10.2962 43.4573 10.2985 43.4406 10.3014 43.4241C10.3051 43.4014 10.3127 43.3701 10.3127 43.3701V43.37C10.3229 43.332 10.3192 43.3456 10.3211 43.3393C10.3211 43.3393 10.331 43.3081 10.3325 43.3045C10.3369 43.2915 10.3436 43.2748 10.3459 43.269C10.3467 43.2672 10.3473 43.2656 10.348 43.2639C10.3582 43.2406 10.3729 43.2111 10.3775 43.202C10.3785 43.2004 10.3793 43.1987 10.3802 43.197C10.3867 43.185 10.383 43.1913 10.3902 43.179C10.3905 43.1786 10.3909 43.178 10.3912 43.1774C10.3956 43.1702 10.4144 43.1395 10.4309 43.1169C10.4323 43.1147 10.4339 43.1127 10.4354 43.1106C10.4402 43.1044 10.4543 43.0865 10.4605 43.0786C10.4624 43.0763 10.4643 43.0738 10.4663 43.0715C10.4708 43.0665 10.4788 43.0575 10.4823 43.0533C10.4837 43.052 10.4849 43.0506 10.4861 43.0492C10.4943 43.0403 10.5029 43.0316 10.5114 43.0232C10.5275 43.0073 10.5294 43.0059 10.5376 42.9986C10.5517 42.9861 10.5713 42.9705 10.5767 42.9661C10.5782 42.9649 10.5799 42.9637 10.5815 42.9623C10.6064 42.9437 10.6322 42.9267 10.6593 42.9113C10.723 42.8747 10.7626 42.8064 10.7623 42.7324C10.7608 41.6145 10.7437 33.6093 10.7414 32.5597C10.7414 32.4943 10.7103 32.433 10.6578 32.3941C10.6151 32.3622 10.5761 32.3242 10.5428 32.2803C10.5145 32.243 10.49 32.2025 10.4711 32.1597C10.4702 32.1576 10.4692 32.1555 10.4684 32.1534C10.4665 32.1489 10.4599 32.1323 10.4567 32.1243C10.4553 32.1212 10.4542 32.1181 10.4531 32.1149C10.4518 32.1106 10.4503 32.1067 10.4495 32.1045C10.4488 32.1027 10.4483 32.1009 10.4477 32.099C10.4424 32.0825 10.4371 32.062 10.4348 32.0527C10.4341 32.0499 10.4333 32.0469 10.4327 32.0439C10.4303 32.0322 10.4277 32.019 10.4268 32.0136C10.4264 32.0113 10.426 32.0091 10.4256 32.0068C10.4219 31.9824 10.4195 31.9519 10.4193 31.9494C10.416 31.8972 10.4168 31.8671 10.4264 31.8099C10.4281 31.7986 10.4311 31.7841 10.4327 31.7772C10.4333 31.7746 10.4338 31.772 10.4345 31.7696C10.4388 31.7529 10.4448 31.7322 10.4467 31.7257C10.4474 31.7231 10.4482 31.7207 10.4491 31.718C10.4583 31.6909 10.4671 31.6704 10.4671 31.6704C10.4672 31.6703 10.4672 31.6702 10.4674 31.6699C10.5102 31.574 10.5777 31.4905 10.6606 31.4276C10.7113 31.3885 10.7409 31.3284 10.741 31.2643C10.7439 30.2599 10.7613 22.7624 10.7631 22.0372C10.7632 22.0045 10.7433 21.9748 10.7129 21.9625C10.7125 21.9624 10.7119 21.9621 10.7114 21.962C10.7069 21.9602 10.7025 21.9583 10.6982 21.9564C10.6982 21.9564 10.6978 21.9564 10.6978 21.9562C10.6096 21.9177 10.5275 21.8641 10.4582 21.7978C10.457 21.7969 10.4559 21.7956 10.4545 21.7946C10.4521 21.792 10.4349 21.7749 10.4289 21.7689C10.4272 21.7673 10.4256 21.7654 10.424 21.7637C10.3884 21.7255 10.356 21.6843 10.3284 21.6406C10.3276 21.6393 10.3266 21.6381 10.326 21.6368C10.323 21.6318 10.3087 21.6081 10.3087 21.6081C10.2994 21.592 10.304 21.6002 10.2961 21.5854C10.2961 21.5854 10.2738 21.5441 10.2568 21.5003C10.2566 21.4999 10.2562 21.4993 10.2562 21.4989C10.2562 21.4988 10.2495 21.481 10.2477 21.4767C10.2475 21.4757 10.247 21.4746 10.2468 21.4737C10.2408 21.4574 10.2345 21.4366 10.2345 21.4365C10.2251 21.4039 10.2299 21.4216 10.2249 21.402C10.2249 21.402 10.2124 21.3519 10.2061 21.3049C10.2058 21.303 10.2056 21.3011 10.2054 21.299C10.2049 21.2945 10.203 21.2781 10.2023 21.2715C10.202 21.2693 10.2019 21.267 10.2018 21.2649C10.1986 21.2243 10.198 21.1837 10.2004 21.1433C10.2004 21.1426 10.2004 21.1416 10.2005 21.1408C10.2011 21.1342 10.2045 21.0915 10.2107 21.0535C10.2114 21.0507 10.2119 21.0479 10.2125 21.0453C10.2148 21.0337 10.2236 20.9931 10.2236 20.9931C10.2236 20.9929 10.2236 20.9929 10.2236 20.9929C10.2349 20.95 10.2308 20.9652 10.233 20.9583C10.233 20.9583 10.2387 20.9402 10.24 20.9356C10.2404 20.9347 10.2407 20.9336 10.241 20.9326C10.2453 20.92 10.2509 20.9048 10.2532 20.8987C10.2539 20.8968 10.2545 20.895 10.2552 20.8931C10.2641 20.8716 10.2752 20.8461 10.2759 20.845C10.2846 20.826 10.2982 20.8005 10.2982 20.8003C10.3071 20.7839 10.3023 20.7925 10.3109 20.7777L10.3219 20.7594C10.3232 20.7574 10.3246 20.7551 10.3259 20.7529C10.3378 20.7346 10.3532 20.7126 10.3581 20.7055C10.3595 20.7036 10.3607 20.7017 10.362 20.7001C10.4422 20.5931 10.5482 20.5043 10.6695 20.4463C10.6697 20.4461 10.6701 20.446 10.6705 20.4459C10.7284 20.419 10.7656 20.3606 10.7656 20.2966C10.7661 19.2942 10.7705 11.8218 10.771 10.7598C10.771 10.6898 10.7348 10.6231 10.675 10.5856C10.6714 10.5833 10.6677 10.581 10.664 10.5785C10.664 10.5785 10.6639 10.5785 10.6636 10.5785C10.661 10.5762 10.622 10.5499 10.591 10.5237C10.591 10.5237 10.5608 10.4973 10.5348 10.4681C10.5347 10.4681 10.5344 10.4681 10.5343 10.4674C10.5343 10.4674 10.5281 10.4605 10.5252 10.4575C10.5243 10.4564 10.5233 10.4552 10.5224 10.454C10.5094 10.4388 10.5012 10.4289 10.4895 10.4126C10.4891 10.4119 10.4891 10.4119 10.4891 10.4119C10.4889 10.4119 10.4832 10.4037 10.4807 10.4009C10.4798 10.3991 10.4788 10.3979 10.4779 10.3966C10.4672 10.3804 10.4651 10.3768 10.4599 10.3687C10.4497 10.3517 10.4372 10.3283 10.4327 10.3195C10.4315 10.3172 10.4303 10.3142 10.429 10.3119C10.4087 10.2686 10.3918 10.2242 10.3808 10.178C10.3804 10.1762 10.3729 10.1382 10.3702 10.1237C10.3693 10.1195 10.3687 10.1154 10.3683 10.1113C10.3642 10.0809 10.3623 10.0418 10.3623 10.0418C10.3616 9.99845 10.3622 9.99845 10.3628 9.98555C10.3638 9.96804 10.3661 9.94766 10.3662 9.94469C10.3685 9.92539 10.3703 9.91372 10.3738 9.89552C10.3758 9.88384 10.3707 9.90135 10.3829 9.85409C10.3941 9.81132 10.4092 9.76867 10.4288 9.7289C10.429 9.7289 10.4291 9.72837 10.4294 9.72837C10.4315 9.72362 10.4476 9.69212 10.4638 9.66577C10.4649 9.66399 10.4659 9.66293 10.467 9.66168C10.4694 9.65815 10.4797 9.64239 10.4828 9.63764C10.4846 9.63533 10.486 9.63302 10.4876 9.63071C10.5122 9.59678 10.5272 9.57979 10.5444 9.56172C10.5462 9.55994 10.5482 9.55872 10.5501 9.55697C10.5567 9.55005 10.574 9.53362 10.5809 9.52656C10.5836 9.52372 10.5863 9.52141 10.5889 9.51895C10.6096 9.50196 10.6369 9.48105 10.637 9.48105C10.6376 9.48036 10.6384 9.47983 10.6391 9.47928C10.6668 9.45932 10.6715 9.45754 10.684 9.44995C10.7847 9.38911 10.9021 9.35708 11.019 9.35583C11.0193 9.35583 11.0194 9.35583 11.0195 9.35583C11.0241 9.35583 11.0241 9.35583 11.0286 9.35583C11.0287 9.35583 11.0288 9.35583 11.029 9.35583C11.1532 9.35705 11.2775 9.39264 11.382 9.46107C11.3829 9.4616 11.3839 9.46229 11.3848 9.46285C11.3899 9.46638 11.4213 9.48798 11.4417 9.50494H11.4419C11.4597 9.51892 11.4833 9.54174 11.4833 9.54174C11.5122 9.56984 11.5388 9.60081 11.5627 9.63422C11.5642 9.636 11.5656 9.6383 11.5671 9.64061C11.5718 9.64767 11.5859 9.66871 11.5859 9.66871C11.5934 9.68148 11.6037 9.69968 11.6037 9.69968C11.6087 9.70783 11.6095 9.71014 11.6095 9.71014C11.63 9.74938 11.6705 9.77395 11.7147 9.77395C12.5054 9.77395 19.2377 9.77395 19.8306 9.77395C19.855 9.77395 19.8768 9.75928 19.8855 9.73593C19.886 9.73415 19.9164 9.66288 19.9187 9.65935C19.9232 9.64998 19.9293 9.6383 19.9313 9.63477C19.9316 9.63424 19.932 9.633 19.9324 9.63247C19.9404 9.61726 19.9359 9.62541 19.9443 9.61073C19.9444 9.61073 19.9444 9.61073 19.9447 9.6102C19.9475 9.60612 19.9691 9.56987 19.9894 9.54177C19.9909 9.53999 19.9923 9.53824 19.9938 9.53593C19.9991 9.52953 20.0151 9.50905 20.0222 9.50034C20.0239 9.4979 20.0258 9.49559 20.0278 9.49329C20.0324 9.48798 20.0419 9.47686 20.046 9.47224C20.0472 9.47047 20.0488 9.46924 20.0502 9.46749C20.0604 9.45704 20.0734 9.44358 20.0769 9.44006C20.0779 9.43952 20.0788 9.43828 20.0798 9.43722C20.0992 9.41848 20.1261 9.39566 20.134 9.38913C20.1353 9.38805 20.1367 9.38682 20.138 9.38574C20.1667 9.36225 20.1929 9.34418 20.2281 9.32258C20.2325 9.31958 20.2325 9.31958 20.237 9.31727C20.3583 9.24653 20.4985 9.20903 20.6382 9.20728C20.6383 9.20728 20.6386 9.20728 20.6387 9.20728C20.6421 9.20728 20.6456 9.20728 20.649 9.20728C20.6494 9.20728 20.6498 9.20728 20.6502 9.20728C20.8407 9.20972 21.0294 9.27981 21.1733 9.40556H21.1734C21.1749 9.40734 21.2014 9.43013 21.2234 9.45295C21.2248 9.45473 21.226 9.45579 21.2274 9.45757C21.2322 9.46232 21.2556 9.48798 21.2556 9.48798C21.2702 9.50549 21.2893 9.52953 21.2893 9.52953C21.3097 9.55697 21.3027 9.54827 21.3066 9.55411L21.32 9.5734C21.3267 9.58332 21.3281 9.58563 21.3281 9.58563C21.3281 9.58563 21.3312 9.59094 21.3327 9.59325C21.3336 9.59502 21.3343 9.59624 21.335 9.59733C21.3519 9.62543 21.3691 9.6594 21.3691 9.6594C21.3846 9.69159 21.3938 9.71197 21.4042 9.74129H21.4044C21.4114 9.76058 21.4303 9.77401 21.4513 9.77401C22.0162 9.77401 29.0754 9.77401 29.4434 9.77401L29.4431 9.77422ZM11.1543 52.5609C11.1539 52.561 11.1534 52.561 11.153 52.5612C11.1519 52.5613 11.1492 52.5619 11.1492 52.5619C11.1507 52.5616 11.1523 52.5613 11.1536 52.561C11.155 52.5608 11.1563 52.5605 11.1578 52.5602C11.1578 52.5602 11.1554 52.5606 11.1543 52.5609H11.1543ZM21.9688 52.4012L21.968 52.4016L21.9688 52.4012ZM21.9746 52.3989C21.9744 52.399 21.9738 52.3993 21.9734 52.3994C21.9725 52.3997 21.9708 52.4004 21.9708 52.4004C21.9718 52.4 21.9729 52.3996 21.974 52.3992C21.9752 52.3988 21.9761 52.3983 21.9772 52.3979C21.9772 52.3979 21.9756 52.3986 21.9747 52.3989H21.9746ZM21.9796 52.3969L21.9785 52.3974L21.9796 52.3969ZM21.2614 52.2624C21.2614 52.2624 21.2617 52.2626 21.2618 52.2626L21.2614 52.2623C21.2614 52.2623 21.2614 52.2623 21.2614 52.2624ZM21.2549 52.2559C21.2557 52.2567 21.2565 52.2575 21.2572 52.2583C21.258 52.2592 21.2588 52.2598 21.2596 52.2607C21.2596 52.2607 21.2583 52.2594 21.2576 52.2587C21.2573 52.2585 21.2571 52.2582 21.2568 52.2579C21.2561 52.2571 21.2549 52.2559 21.2549 52.2559L21.2549 52.2559ZM21.2533 52.2544L21.2537 52.2548L21.253 52.2541C21.253 52.2541 21.2531 52.2543 21.2533 52.2544L21.2533 52.2544ZM10.2824 52.1213C10.2829 52.1226 10.2834 52.1238 10.284 52.1249C10.2847 52.1261 10.2852 52.1274 10.2857 52.1288C10.2857 52.1288 10.2848 52.1265 10.2843 52.1254C10.2841 52.1251 10.284 52.1247 10.2837 52.1243C10.2833 52.1234 10.2824 52.1213 10.2824 52.1213L10.2824 52.1213ZM10.2813 52.1194C10.2815 52.1196 10.2817 52.1198 10.2817 52.12L10.2807 52.1178C10.2807 52.1178 10.2811 52.1189 10.2813 52.1194L10.2813 52.1194ZM22.3812 51.8782L22.381 51.8793L22.3812 51.8782ZM22.382 51.8725C22.3819 51.8731 22.3819 51.8735 22.3817 51.8739C22.3816 51.8748 22.3813 51.8766 22.3813 51.8766C22.3816 51.8755 22.3817 51.8743 22.3819 51.8733C22.382 51.872 22.3823 51.8709 22.3823 51.8697C22.3823 51.8697 22.3821 51.8716 22.382 51.8725V51.8725ZM16.0975 48.666C16.0798 48.6507 16.054 48.6489 16.0343 48.6618C15.671 48.8995 12.5039 50.971 11.9399 51.3399C11.8918 51.3714 11.8707 51.4314 11.8886 51.4862C11.8888 51.4862 11.8888 51.4862 11.8888 51.4862C11.9053 51.5364 11.952 51.5704 12.0046 51.5704C12.9276 51.5705 20.4561 51.5705 20.918 51.5705C20.9311 51.5705 20.9423 51.5618 20.9457 51.549C20.9459 51.5482 20.9462 51.5471 20.9465 51.5463C20.948 51.5409 20.9495 51.5364 20.9501 51.5345L20.9507 51.5325C20.9562 51.5154 20.9503 51.4964 20.9357 51.4856C20.6298 51.2614 17.597 49.0367 17.169 48.7231C17.1404 48.702 17.1016 48.7013 17.0721 48.7214C17.072 48.7216 17.0718 48.7217 17.0717 48.7217C17.0699 48.7228 17.037 48.7452 17.0047 48.7633C17.0032 48.7641 17.0017 48.7649 17.0002 48.7656C16.9924 48.7697 16.9604 48.7862 16.9349 48.7974C16.933 48.7982 16.9308 48.7991 16.9288 48.7999C16.9129 48.8062 16.8403 48.8342 16.7718 48.8475C16.5359 48.8931 16.2808 48.8251 16.0974 48.666H16.0975ZM10.2901 51.4221C10.2901 51.4222 10.2899 51.4225 10.2899 51.4226C10.2897 51.423 10.2891 51.4241 10.2891 51.4241L10.2901 51.4221V51.4221ZM10.2945 51.4137C10.2937 51.4149 10.2932 51.4161 10.2925 51.4173C10.292 51.4186 10.2913 51.4197 10.2907 51.4209C10.2907 51.4209 10.2917 51.4188 10.2922 51.4179C10.2923 51.4175 10.2926 51.417 10.2927 51.4167C10.2933 51.4157 10.2945 51.4137 10.2945 51.4137L10.2945 51.4137ZM10.2959 51.411C10.2957 51.4111 10.2956 51.4115 10.2955 51.4118L10.2959 51.4107V51.411ZM21.9995 51.1714C21.9999 51.1716 22.0003 51.1718 22.0007 51.172C22.0016 51.1724 22.0032 51.1732 22.0032 51.1732C22.0022 51.1727 22.0011 51.1722 22 51.1717C21.9989 51.1712 21.9978 51.1707 21.9967 51.1702C21.9967 51.1702 21.9984 51.171 21.9994 51.1714H21.9995ZM21.9933 51.1686L21.9961 51.17C21.9951 51.1694 21.9943 51.169 21.9933 51.1686ZM21.9897 51.167L21.992 51.1681C21.9912 51.1677 21.9904 51.1674 21.9897 51.167ZM21.9876 51.1662H21.9877H21.9876ZM21.3997 42.1279C21.3619 42.1149 21.3197 42.1279 21.2959 42.1602C20.8949 42.703 17.7165 47.0046 17.3179 47.5441C17.294 47.5763 17.2917 47.6196 17.3116 47.6544V47.6545L17.3235 47.6756C17.3318 47.6916 17.3429 47.7139 17.3429 47.7139C17.3508 47.7305 17.3606 47.7542 17.3606 47.7542C17.3678 47.772 17.3766 47.7964 17.3766 47.7964C17.3796 47.8057 17.3828 47.8152 17.3855 47.8244C17.402 47.8785 17.4 47.8768 17.4039 47.8971C17.4099 47.9257 17.4109 47.9349 17.4131 47.9512C17.4153 47.9667 17.4172 47.9871 17.4172 47.9871C17.421 48.036 17.421 48.0855 17.4165 48.1347C17.4097 48.2068 17.4412 48.2773 17.4995 48.3199C18.0847 48.7507 21.0378 50.9167 21.2688 51.0862C21.2773 51.0924 21.289 51.0928 21.2979 51.0871C21.2983 51.0869 21.2986 51.0867 21.2991 51.0864C21.3164 51.0756 21.3343 51.0657 21.3524 51.0563C21.4202 51.021 21.463 50.9505 21.463 50.8735C21.4635 49.8208 21.4635 42.9844 21.4635 42.2175C21.4635 42.1771 21.4378 42.1409 21.3998 42.1278C21.3998 42.1279 21.3998 42.1279 21.3997 42.1279H21.3997ZM11.4616 44.2125C11.4332 44.1898 11.394 44.1861 11.3617 44.2029C11.3617 44.2029 11.341 44.2138 11.3177 44.2241L11.3168 44.2245C11.2912 44.2353 11.2745 44.2603 11.2741 44.2883C11.2679 44.8258 11.2108 49.7701 11.1998 50.7081C11.1989 50.7947 11.2517 50.8727 11.3323 50.9035C11.3611 50.9129 11.3887 50.9251 11.4156 50.9385C11.4806 50.9715 11.5582 50.9675 11.6193 50.9274C12.2322 50.528 15.3535 48.4864 15.7793 48.2079C15.8089 48.1887 15.8255 48.1549 15.8231 48.1196C15.8231 48.1191 15.8217 48.0956 15.8213 48.088C15.8212 48.0858 15.8211 48.0839 15.8211 48.082C15.8207 48.0607 15.8212 48.0341 15.8215 48.0259C15.8215 48.0241 15.8216 48.0225 15.8216 48.0209C15.8227 48.0035 15.8241 47.9845 15.8246 47.9818C15.826 47.9645 15.8293 47.9415 15.8304 47.9345C15.8306 47.933 15.8308 47.9317 15.8311 47.93C15.8332 47.9165 15.8365 47.8998 15.8376 47.8945C15.8378 47.8935 15.838 47.8925 15.8383 47.8915C15.8393 47.8863 15.84 47.8826 15.8406 47.8804C15.841 47.8784 15.8414 47.8768 15.8419 47.8749C15.8469 47.8549 15.8538 47.8295 15.8538 47.8295C15.8708 47.774 15.8653 47.7931 15.8726 47.7737C15.8735 47.7713 15.8822 47.7501 15.8848 47.7436C15.8853 47.7424 15.8858 47.7411 15.8864 47.7399C15.8868 47.7388 15.8865 47.7376 15.8857 47.7371C15.7996 47.6682 11.9425 44.5956 11.4616 44.2125H11.4616ZM16.867 48.6692L16.8661 48.6696L16.867 48.6692ZM16.8726 48.6669C16.8722 48.6672 16.8719 48.6673 16.8715 48.6673C16.8705 48.6678 16.8688 48.6685 16.8688 48.6685C16.87 48.6681 16.871 48.6677 16.872 48.6673C16.873 48.6666 16.8742 48.6662 16.8752 48.6658C16.8752 48.6658 16.8735 48.6665 16.8726 48.6669H16.8726ZM16.8776 48.6649L16.8765 48.6653L16.8776 48.6649ZM17.2698 48.1515L17.2697 48.1526L17.2698 48.1515ZM17.2707 48.1461C17.2706 48.1465 17.2706 48.1469 17.2706 48.1473C17.2705 48.1483 17.2701 48.15 17.2701 48.15C17.2703 48.1489 17.2705 48.1477 17.2706 48.1466C17.2707 48.1455 17.271 48.1442 17.2711 48.1431C17.2711 48.1431 17.2709 48.145 17.2707 48.1461ZM15.9763 47.9347C15.9762 47.9349 15.9762 47.9351 15.9762 47.9353C15.976 47.9357 15.976 47.936 15.976 47.936L15.9763 47.9347V47.9347ZM15.9778 47.9264C15.9778 47.9276 15.9774 47.9288 15.9771 47.9299C15.977 47.9311 15.9767 47.9323 15.9766 47.9333C15.9766 47.9333 15.9768 47.9317 15.977 47.9307C15.9771 47.9303 15.9772 47.9299 15.9772 47.9295C15.9775 47.9283 15.9777 47.9264 15.9777 47.9264H15.9778ZM17.0118 35.7411C16.9605 35.6777 16.8767 35.6503 16.7982 35.6719C16.6843 35.704 16.5637 35.7128 16.4454 35.6976C16.367 35.6877 16.2901 35.7241 16.2474 35.7909C15.6572 36.7168 11.792 42.7863 11.6046 43.0805C11.6005 43.087 11.6008 43.0957 11.6055 43.1018C11.6055 43.1019 11.6055 43.1019 11.6055 43.1019C11.6057 43.1021 11.6057 43.1023 11.6059 43.1025C11.6076 43.1046 11.6183 43.119 11.6183 43.119C11.625 43.1287 11.6261 43.1302 11.6261 43.1302C11.645 43.1577 11.6481 43.1637 11.6573 43.1792C11.6676 43.197 11.6803 43.2222 11.6803 43.2222C11.6917 43.2458 11.7057 43.2794 11.7057 43.2794C11.7126 43.2973 11.721 43.322 11.721 43.322C11.7286 43.3469 11.7357 43.3716 11.7409 43.397C11.7411 43.3988 11.7416 43.4007 11.742 43.4025C11.7432 43.4091 11.7487 43.4413 11.7487 43.4413C11.7525 43.467 11.7551 43.4928 11.756 43.5186C11.7561 43.5195 11.7561 43.5204 11.7561 43.5213C11.7563 43.5244 11.7567 43.5495 11.7567 43.5495C11.7567 43.5503 11.7567 43.5511 11.7567 43.552C11.7558 43.6072 11.7545 43.611 11.7519 43.6334C11.7507 43.6447 11.7486 43.6595 11.7479 43.6639C11.7477 43.6649 11.7475 43.666 11.7472 43.6674C11.7451 43.6804 11.7419 43.6962 11.7411 43.7002C11.7411 43.7015 11.7407 43.7025 11.7404 43.7035C11.7331 43.739 11.7461 43.7755 11.7745 43.7979C12.237 44.1664 15.8724 47.0626 16.2121 47.3333C16.2273 47.3454 16.248 47.3476 16.2651 47.339C16.2653 47.339 16.2653 47.339 16.2653 47.339C16.3736 47.285 16.4942 47.2564 16.6153 47.2555C16.6153 47.2555 16.6153 47.2555 16.6154 47.2555C16.6204 47.2555 16.6204 47.2555 16.6254 47.2555C16.6646 47.2558 16.7037 47.2589 16.7424 47.2649C16.8174 47.2763 16.8926 47.2454 16.9376 47.1842C17.4706 46.4646 20.5167 42.3417 20.8895 41.8371C20.9118 41.8069 20.9124 41.766 20.8907 41.7355C20.8903 41.735 20.8898 41.7343 20.8895 41.7336C20.7801 41.566 20.7196 41.3667 20.7227 41.1649C20.7227 41.1602 20.7285 41.0301 20.7526 40.9336C20.763 40.8919 20.7819 40.837 20.7833 40.833C20.7916 40.8101 20.803 40.7831 20.8035 40.7819C20.816 40.753 20.8298 40.7247 20.8448 40.6972C20.8848 40.6238 20.8764 40.5338 20.8242 40.469C20.2848 39.7993 17.5472 36.4051 17.0118 35.741L17.0118 35.7411ZM10.6159 43.9765C10.616 43.9766 10.616 43.9766 10.6161 43.9768L10.6157 43.9765H10.6159ZM10.61 43.9708C10.6107 43.9715 10.6114 43.9721 10.6121 43.9728C10.613 43.9737 10.6137 43.9743 10.6144 43.975C10.6144 43.975 10.6133 43.9741 10.6126 43.9732C10.6123 43.9731 10.6119 43.9727 10.6117 43.9724C10.6111 43.9719 10.61 43.9708 10.61 43.9708ZM10.6087 43.9694L10.6091 43.97L10.6086 43.9693C10.6086 43.9693 10.6086 43.9694 10.6087 43.9694V43.9694ZM11.6059 43.6404L11.6057 43.6411L11.6059 43.6404ZM11.6068 43.6354C11.6066 43.6358 11.6066 43.6362 11.6065 43.6366C11.6065 43.6374 11.6061 43.6389 11.6061 43.6389C11.6064 43.638 11.6065 43.637 11.6066 43.6361C11.6068 43.635 11.6069 43.6339 11.607 43.6328C11.607 43.6328 11.6068 43.6343 11.6068 43.6354ZM10.445 43.4381C10.445 43.4383 10.4447 43.4385 10.4447 43.4388C10.4447 43.4392 10.4447 43.4396 10.4447 43.4396L10.445 43.4381V43.4381ZM10.4464 43.4307C10.4462 43.432 10.4459 43.4328 10.4457 43.434C10.4455 43.435 10.4453 43.436 10.4452 43.437C10.4452 43.437 10.4455 43.4355 10.4456 43.4347C10.4457 43.4343 10.4457 43.4339 10.4459 43.4333C10.446 43.4324 10.4464 43.4308 10.4464 43.4308L10.4464 43.4307ZM11.4722 32.3374C11.4657 32.334 11.4577 32.3352 11.4525 32.3405C11.4521 32.3409 11.4515 32.3414 11.4511 32.3418C11.4453 32.3475 11.4042 32.3866 11.3662 32.4126C11.366 32.4128 11.3658 32.4129 11.3655 32.413C11.3654 32.413 11.3252 32.44 11.2895 32.4576C11.2708 32.4668 11.2588 32.4861 11.2588 32.507C11.2599 33.0524 11.2744 39.7166 11.279 41.9213C11.2793 42.0127 11.3395 42.0934 11.4271 42.119C11.5147 42.1446 11.6085 42.1091 11.6577 42.0321C12.7408 40.331 15.7909 35.5415 15.8885 35.3881C15.89 35.386 15.8899 35.383 15.8881 35.381C15.888 35.3806 15.8876 35.3803 15.8873 35.38C15.8788 35.3686 15.8742 35.3633 15.8604 35.3435C15.8604 35.3433 15.8604 35.3433 15.8603 35.3433C15.8603 35.3431 15.8458 35.3217 15.8457 35.3217C15.8457 35.3216 15.8457 35.3216 15.8457 35.3216C15.842 35.316 15.8413 35.3155 15.832 35.2999C15.8319 35.2999 15.8319 35.2999 15.8319 35.2997C15.8319 35.2997 15.8174 35.2747 15.8128 35.267C15.8117 35.2651 15.8108 35.2635 15.8097 35.2616C15.8053 35.2536 15.7943 35.2328 15.7841 35.2108C15.784 35.21 15.7834 35.2093 15.7832 35.2086C15.783 35.2085 15.7729 35.185 15.7728 35.1848C15.7726 35.1846 15.7725 35.1843 15.7724 35.184C15.7502 35.1319 15.7476 35.1175 15.747 35.1151C15.7391 35.091 15.7364 35.0805 15.7361 35.0796C15.7317 35.063 15.7298 35.0554 15.7294 35.0538C15.7294 35.0536 15.7294 35.0535 15.7294 35.0534C15.7224 35.0231 15.7213 35.0168 15.7213 35.0168C15.7199 35.0096 15.7195 35.0088 15.7168 34.9913C15.7168 34.9913 15.7111 34.9585 15.7084 34.9258C15.7084 34.9256 15.7068 34.9021 15.7061 34.8923C15.7061 34.8897 15.7057 34.8869 15.7057 34.8843C15.7053 34.8722 15.7052 34.8589 15.7051 34.8527C15.7051 34.8505 15.7051 34.848 15.7051 34.8457C15.7053 34.8278 15.706 34.8101 15.706 34.8101C15.7078 34.769 15.7157 34.7132 15.7157 34.7128C15.7202 34.6852 15.7229 34.6731 15.7234 34.6708C15.7236 34.6707 15.7236 34.6704 15.7236 34.6704C15.7286 34.6484 15.7317 34.6361 15.7328 34.6316C15.7329 34.6306 15.7333 34.6297 15.7336 34.6287C15.7348 34.624 15.7401 34.6057 15.7414 34.6006C15.7417 34.5997 15.742 34.5989 15.7422 34.5981V34.5979C15.7428 34.5963 15.742 34.5945 15.7405 34.5935C15.6226 34.5312 11.7088 32.4626 11.4722 32.3374H11.4722ZM30.4315 41.7014L30.4307 41.7016L30.4315 41.7014ZM30.4365 41.6993C30.4361 41.6996 30.4357 41.6997 30.4352 41.6998C30.4343 41.7002 30.4331 41.7007 30.4331 41.7007C30.4339 41.7004 30.4349 41.7 30.4357 41.6996C30.4366 41.6993 30.4377 41.6989 30.4385 41.6984C30.4385 41.6984 30.437 41.6989 30.4365 41.6993H30.4365ZM29.8361 41.5844C29.8362 41.5846 29.8362 41.5846 29.8363 41.5847L29.8361 41.5844ZM29.8342 41.5827L29.8346 41.5831L29.8325 41.581C29.8325 41.581 29.8337 41.5821 29.8341 41.5826L29.8342 41.5827ZM29.8307 41.5791C29.8309 41.5794 29.8311 41.5795 29.8313 41.5798C29.8317 41.5802 29.8326 41.581 29.8326 41.581L29.8305 41.579C29.8305 41.579 29.8305 41.5791 29.8307 41.5791ZM29.8293 41.5778C29.8294 41.5779 29.8296 41.578 29.8296 41.5782L29.829 41.5776C29.829 41.5776 29.8292 41.5776 29.8293 41.5778ZM20.9473 41.5431V41.5434V41.5431ZM26.6992 37.2744C26.6516 37.2159 26.5756 37.1889 26.5019 37.2045C26.4184 37.2222 26.3313 37.2221 26.2475 37.206C26.1821 37.1937 26.1147 37.2141 26.0669 37.2607C25.5915 37.7229 23.2243 40.0265 22.6857 40.5504C22.6246 40.6099 22.6063 40.7013 22.6399 40.7799C22.6476 40.7973 22.6547 40.8151 22.6612 40.833C22.6799 40.8842 22.7284 40.9182 22.7825 40.9182C23.5772 40.9182 29.1033 40.9182 29.5417 40.9182C29.5582 40.9182 29.5732 40.908 29.5796 40.8925C29.5799 40.8918 29.5803 40.8912 29.5805 40.8905C29.5808 40.8901 29.5809 40.8896 29.5811 40.8892C29.5926 40.8635 29.5888 40.8334 29.5709 40.8116C29.2926 40.4687 27.1585 37.84 26.6992 37.2744ZM20.9635 40.7805C20.9635 40.7806 20.9635 40.7806 20.9635 40.7807V40.7805ZM20.9666 40.7745C20.9666 40.7745 20.9665 40.7746 20.9665 40.7748L20.9666 40.7745ZM30.3259 31.7731C30.3114 31.7714 30.2979 31.7798 30.2928 31.7934C30.1669 32.1306 29.843 32.3886 29.4779 32.4258C29.4088 32.4327 29.3396 32.4322 29.271 32.4243C29.1909 32.4148 29.1124 32.4537 29.0713 32.5236C28.7102 33.1327 27.1139 35.8362 26.9186 36.1666C26.9071 36.1861 26.9073 36.2106 26.919 36.2303C26.9198 36.2316 26.9208 36.233 26.9216 36.2345C26.9262 36.243 26.945 36.2767 26.945 36.2767C26.9636 36.3146 26.9565 36.2999 26.9635 36.3172C26.9867 36.3726 27.0028 36.4311 27.0096 36.4912L27.0114 36.5073C27.0142 36.544 27.0154 36.5807 27.0126 36.6174C27.0122 36.6231 27.0115 36.6287 27.0107 36.6343C27.0086 36.6456 27.0047 36.6691 26.9989 36.6966C26.9854 36.7581 27.0007 36.8224 27.0403 36.8713C27.4321 37.3543 29.476 39.8718 29.9128 40.4098C29.9599 40.4675 30.0344 40.4955 30.1075 40.4826C30.1443 40.475 30.1817 40.4713 30.2194 40.4709C30.2263 40.4709 30.2263 40.4709 30.2331 40.4709C30.3591 40.4728 30.4851 40.5088 30.5925 40.5755L30.5927 40.5756L30.596 40.5775C30.6244 40.5955 30.6621 40.6245 30.6621 40.6245C30.7002 40.6559 30.7526 40.663 30.7977 40.6433C31.6177 40.2837 38.7098 37.1747 38.9164 37.0841C38.9191 37.0827 38.9208 37.08 38.9203 37.0769C38.8948 36.9006 38.9391 36.582 39.075 36.3752C39.1048 36.33 39.1387 36.2871 39.1756 36.2474C39.2335 36.1854 39.2473 36.094 39.2104 36.0174C38.9754 35.5282 38.1715 33.8624 37.942 33.3869C37.9074 33.315 37.8343 33.2696 37.7546 33.2706C37.6405 33.2726 37.5256 33.2517 37.4188 33.2065C37.3731 33.1869 37.3293 33.1635 37.2879 33.1362C37.2863 33.1353 37.2848 33.1342 37.2833 33.1332C37.2749 33.1273 37.2399 33.1028 37.2203 33.0869C37.2202 33.0869 37.22 33.0868 37.22 33.0868C37.1918 33.064 37.1647 33.0393 37.1396 33.0128C37.1395 33.0125 37.1391 33.0123 37.1388 33.0118C37.1388 33.0118 37.1296 33.0019 37.1265 32.9984C37.1252 32.9973 37.1243 32.9962 37.1233 32.9951C37.0893 32.9568 37.0579 32.9157 37.0313 32.8717C37.0301 32.8699 37.0291 32.8681 37.0279 32.8661C37.0244 32.8599 37.0118 32.8374 37.0064 32.8281C37.0048 32.8252 37.0031 32.8222 37.0017 32.8192C36.9977 32.8114 36.9902 32.7964 36.9879 32.7917C36.9798 32.7743 36.9708 32.7531 36.9694 32.7494C36.9527 32.7083 36.9392 32.6658 36.9292 32.6226C36.9291 32.6221 36.9289 32.6216 36.9288 32.6211C36.9278 32.6166 36.9192 32.577 36.915 32.5444L36.9149 32.5441C36.9149 32.544 36.9149 32.544 36.9149 32.544C36.8836 32.5402 30.7652 31.8247 30.3259 31.7732L30.3259 31.7731ZM21.2643 32.1599C21.2332 32.1397 21.1932 32.1395 21.162 32.1595C20.71 32.448 17.5308 34.4779 17.3807 34.5735C17.3776 34.5757 17.3763 34.5796 17.3774 34.5833C17.3852 34.6076 17.3879 34.6179 17.3882 34.6188C17.3906 34.6278 17.3933 34.6385 17.3933 34.6385C17.401 34.6692 17.4086 34.7128 17.4086 34.7128C17.4126 34.7419 17.4164 34.7804 17.4167 34.7828C17.4188 34.8102 17.4188 34.821 17.4192 34.8373C17.4192 34.8383 17.4192 34.8394 17.4192 34.8403C17.4192 34.8452 17.4192 34.8595 17.4192 34.8596C17.4184 34.9053 17.4185 34.8841 17.4178 34.8986C17.4161 34.9301 17.4105 34.9717 17.41 34.9747C17.4094 34.9795 17.4044 35.0119 17.3972 35.0435C17.3968 35.0454 17.3929 35.0609 17.3915 35.0666C17.3911 35.0681 17.3907 35.0696 17.3903 35.0712C17.3875 35.0818 17.3838 35.0943 17.3827 35.0981C17.3825 35.0991 17.3822 35.1002 17.3819 35.1012C17.3758 35.1205 17.3681 35.1425 17.367 35.1451C17.3539 35.1816 17.3455 35.199 17.3438 35.2027C17.3437 35.2029 17.3437 35.2032 17.3435 35.2035C17.3254 35.2419 17.3208 35.2505 17.3105 35.2687C17.3105 35.2687 17.3105 35.2687 17.3105 35.2688C17.3071 35.2748 17.3078 35.2821 17.3121 35.2875C17.4824 35.4985 20.6476 39.4231 21.2306 40.1459C21.2828 40.2106 21.3684 40.2375 21.4477 40.2142C21.5324 40.1894 21.6204 40.1757 21.7088 40.1743C21.7091 40.1743 21.7094 40.1743 21.7095 40.1743C21.7159 40.1743 21.7222 40.174 21.7289 40.1743C21.7289 40.1743 21.7291 40.1743 21.7292 40.1743C21.8507 40.1755 21.9714 40.1997 22.0844 40.2441C22.1592 40.2733 22.244 40.256 22.3016 40.2001C22.8213 39.6945 25.1857 37.3937 25.6815 36.9113C25.7328 36.8613 25.7547 36.788 25.739 36.7178C25.7367 36.7096 25.7351 36.7016 25.7334 36.6932C25.7332 36.6913 25.7327 36.6894 25.7323 36.6874C25.7317 36.6829 25.7288 36.665 25.7276 36.6565C25.7271 36.6535 25.7267 36.6503 25.7264 36.6473C25.7257 36.642 25.7252 36.6367 25.7248 36.6314C25.7222 36.6061 25.7222 36.5991 25.7218 36.5858C25.7214 36.5669 25.7223 36.5422 25.7228 36.5324C25.7229 36.5298 25.723 36.5275 25.7232 36.5251C25.7235 36.5192 25.7241 36.5133 25.7248 36.5073C25.7304 36.445 25.7299 36.4596 25.7372 36.427C25.7373 36.427 25.7517 36.3705 25.7624 36.3423C25.787 36.2767 25.7728 36.2027 25.7257 36.1509C25.2363 35.6132 22.7469 32.877 22.2211 32.299C22.1657 32.2381 22.0794 32.2163 22.0019 32.2434C21.7706 32.3248 21.5049 32.3063 21.2898 32.176C21.2813 32.1708 21.2726 32.1655 21.2643 32.1599L21.2643 32.1599ZM26.3676 37.0741H26.3647C26.3647 37.0741 26.3673 37.0741 26.3676 37.0741ZM26.3609 37.074H26.3612H26.3609ZM40.769 37.042V37.0423V37.042ZM39.1513 36.5295C39.1513 36.5298 39.1511 36.5298 39.1511 36.5298L39.1513 36.5295ZM39.1544 36.5234C39.1544 36.5236 39.1544 36.5236 39.1543 36.5238L39.1544 36.5234ZM25.8757 36.468C25.8757 36.4682 25.8757 36.4682 25.8757 36.4682C25.8757 36.4685 25.875 36.4707 25.875 36.4707L25.8757 36.468ZM38.7074 24.2929C38.6398 24.2553 38.5567 24.2594 38.4927 24.3032C37.8542 24.742 34.6585 26.9422 34.2419 27.2289C34.2161 27.2468 34.2033 27.2786 34.2094 27.3096C34.2095 27.3105 34.2098 27.3115 34.2099 27.3124C34.211 27.3189 34.2163 27.3488 34.2163 27.3488C34.2208 27.3795 34.2234 27.4105 34.2237 27.4417C34.2237 27.4435 34.2237 27.4451 34.2237 27.4468C34.2235 27.4527 34.223 27.4804 34.223 27.4805C34.222 27.5044 34.2199 27.5282 34.2162 27.5518C34.2161 27.5534 34.2157 27.5551 34.2154 27.5567C34.2145 27.5625 34.2108 27.5821 34.2095 27.5897C34.2091 27.5923 34.2085 27.595 34.2081 27.5975C34.2007 27.6306 34.1911 27.6633 34.1791 27.6952C34.177 27.7009 34.1781 27.7075 34.182 27.7121C34.3263 27.885 36.8772 30.9428 37.3758 31.5406C37.4246 31.599 37.5013 31.6256 37.5756 31.61C37.6289 31.5976 37.6834 31.5918 37.7382 31.591C37.7384 31.591 37.7388 31.591 37.7391 31.591C37.7426 31.591 37.7463 31.591 37.7499 31.591C37.7502 31.591 37.7503 31.591 37.7506 31.591C37.8913 31.5926 38.0309 31.629 38.1526 31.6977C38.1597 31.7018 38.1669 31.706 38.1739 31.7102C38.1741 31.7102 38.1742 31.7103 38.1743 31.7104C38.2213 31.7385 38.2656 31.7714 38.3059 31.8084C38.3064 31.8088 38.3068 31.8091 38.307 31.8095C38.3072 31.8095 38.3218 31.8232 38.3218 31.8232C38.3354 31.8365 38.3533 31.8551 38.3533 31.8551C38.3617 31.8639 38.3637 31.8664 38.3637 31.8664C38.399 31.9057 38.4313 31.9481 38.4588 31.9936C38.4592 31.9941 38.4596 31.9948 38.4599 31.9955C38.46 31.9957 38.4727 32.0174 38.4727 32.0174C38.496 32.0584 38.4883 32.0462 38.4919 32.0532C38.5012 32.0722 38.5133 32.0991 38.5133 32.0991C38.5283 32.134 38.5409 32.17 38.5511 32.2067C38.5518 32.2093 38.5625 32.2529 38.5633 32.2572C38.5787 32.3293 38.5756 32.3289 38.5771 32.3458L38.5798 32.3769C38.5822 32.4149 38.5824 32.4532 38.5794 32.4909L38.5778 32.5122C38.5694 32.5877 38.5677 32.585 38.5645 32.6009C38.5547 32.6498 38.5516 32.6555 38.5468 32.6717C38.5301 32.7284 38.5279 32.7286 38.5212 32.7453C38.5072 32.7797 38.5007 32.7931 38.4905 32.8132C38.4902 32.8139 38.4896 32.8145 38.4894 32.8152C38.4876 32.8186 38.481 32.8313 38.4788 32.8355C38.4783 32.8364 38.4778 32.8374 38.4771 32.8385C38.4723 32.8472 38.4668 32.8568 38.4641 32.8612C38.4633 32.8627 38.4625 32.8642 38.4615 32.8655C38.4468 32.8894 38.4435 32.8943 38.4356 32.906C38.4131 32.9391 38.3885 32.9704 38.3616 32.9996C38.3614 33 38.3611 33.0002 38.3608 33.0005C38.3607 33.0006 38.3508 33.0111 38.348 33.0142C38.3474 33.0149 38.3467 33.0156 38.3461 33.0163C38.3461 33.0163 38.3461 33.0163 38.3459 33.0163C38.3431 33.0193 38.3424 33.0239 38.3442 33.0278C38.4076 33.1591 39.4198 35.2566 39.6848 35.805C39.7204 35.8788 39.7958 35.9244 39.8775 35.9213C39.8872 35.9208 39.897 35.9205 39.9069 35.9203C39.9074 35.9203 39.9085 35.9203 39.9092 35.9203C39.9132 35.9203 39.9171 35.9203 39.9212 35.9203C39.9217 35.9203 39.9223 35.9203 39.9229 35.9203C39.9512 35.9206 39.9788 35.9223 40.0069 35.9251C40.0893 35.933 40.1686 35.8899 40.2073 35.8162C40.6532 34.9702 43.1105 30.2984 43.2531 30.0272C43.2572 30.0197 43.2554 30.0109 43.2496 30.0051C43.2491 30.0044 43.2484 30.0038 43.2478 30.0033C43.2397 29.9947 43.238 29.9928 43.238 29.9928C43.2164 29.968 43.1885 29.9329 43.1862 29.9295C43.1448 29.874 43.1314 29.8484 43.1133 29.8126C43.1105 29.8075 43.0941 29.7729 43.0883 29.7612C43.0872 29.7583 43.086 29.7557 43.0848 29.753C43.0784 29.7379 43.0721 29.7202 43.0698 29.7152C43.0698 29.7142 43.0698 29.7131 43.0691 29.7121C43.058 29.6825 43.0487 29.6521 43.0412 29.6213C43.0412 29.6195 43.0406 29.6179 43.04 29.6161C43.0388 29.6094 43.0337 29.5857 43.0319 29.5755C43.0312 29.5724 43.0301 29.5691 43.0301 29.5657C43.0254 29.5379 43.0213 29.5096 43.0203 29.4813C43.0203 29.4809 43.0203 29.4803 43.0203 29.4799C43.0196 29.4753 43.0178 29.4448 43.0178 29.4149C43.0178 29.4148 43.0185 29.3835 43.0196 29.371C43.0196 29.3678 43.0196 29.3645 43.0203 29.3614C43.0214 29.3341 43.0244 29.3067 43.0289 29.2796C43.0295 29.2777 43.0295 29.276 43.0302 29.2739C43.0312 29.2674 43.0365 29.2435 43.0383 29.2333C43.0388 29.2297 43.04 29.2263 43.0406 29.223C43.0499 29.1884 43.0627 29.1463 43.0638 29.1427C43.0756 29.1085 43.0802 29.0985 43.0878 29.0807C43.0883 29.0797 43.089 29.0785 43.0895 29.0774C43.0948 29.0666 43.1181 29.0163 43.1378 28.9837C43.1506 28.9624 43.1688 28.9362 43.1716 28.9322C43.1832 28.9146 43.1827 28.8908 43.1693 28.8738C42.8986 28.5247 40.262 25.1302 39.7228 24.4368C39.6691 24.3678 39.5783 24.3403 39.4958 24.368C39.4596 24.3813 39.4223 24.3913 39.3844 24.3991C39.156 24.4462 38.9131 24.4065 38.7074 24.293V24.2929ZM28.4811 31.8349C28.4485 31.7595 28.3745 31.7108 28.2927 31.7108C27.4664 31.7106 23.3574 31.7106 22.6327 31.7106C22.5705 31.7106 22.5139 31.7467 22.4874 31.8031V31.8035C22.4842 31.8104 22.4854 31.8184 22.4905 31.8242C22.6698 32.0213 25.6531 35.3003 26.1585 35.8556C26.2007 35.9019 26.2613 35.9265 26.3238 35.9223C26.3396 35.9208 26.3557 35.9202 26.3717 35.9202C26.3718 35.9202 26.3721 35.9202 26.3721 35.9202C26.3722 35.9202 26.3724 35.9202 26.3725 35.9202C26.4278 35.9206 26.4792 35.8917 26.5073 35.8438C26.795 35.3568 28.264 32.8689 28.6152 32.274C28.6577 32.202 28.6528 32.1114 28.6028 32.0445C28.5536 31.9798 28.5128 31.9091 28.4811 31.8349H28.4811ZM17.2683 34.9503L17.2681 34.9513L17.2683 34.9503ZM17.2691 34.9449L17.2685 34.9486L17.2688 34.9473C17.2688 34.9465 17.2691 34.9449 17.2691 34.9449ZM17.2696 34.9411L17.2691 34.9449L17.2696 34.9411ZM15.8616 34.7145C15.8616 34.7147 15.8613 34.7149 15.8613 34.7153C15.8613 34.7155 15.8612 34.716 15.8612 34.716L15.8616 34.7145V34.7145ZM15.8634 34.7054C15.8631 34.7066 15.8628 34.7081 15.8624 34.7093C15.8623 34.7105 15.862 34.7117 15.8617 34.7129C15.8617 34.7129 15.8622 34.7109 15.8624 34.7099C15.8624 34.7095 15.8624 34.7091 15.8627 34.7086C15.8628 34.7076 15.8634 34.7053 15.8634 34.7053V34.7054ZM16.8549 34.1958C16.8553 34.1961 16.8558 34.1962 16.8562 34.1964C16.8571 34.1969 16.859 34.1977 16.859 34.1977C16.8579 34.1973 16.8567 34.1966 16.8556 34.1961C16.8545 34.1956 16.8532 34.1951 16.8521 34.1946C16.8521 34.1946 16.854 34.1954 16.8549 34.1958H16.8549ZM16.8486 34.193L16.8514 34.1942C16.8503 34.1938 16.8494 34.1934 16.8486 34.193ZM16.8467 34.1923H16.8468C16.8468 34.1923 16.8468 34.1923 16.8467 34.1923ZM16.9719 34.093C17.0373 34.1285 17.1166 34.1256 17.1791 34.0854C17.6126 33.8092 19.229 32.7774 20.1447 32.1928C20.223 32.1427 20.2583 32.0461 20.2306 31.957C20.2027 31.868 20.1192 31.8086 20.0261 31.8124C18.3953 31.8773 14.5818 32.0293 12.9474 32.0943C12.8545 32.098 12.7757 32.164 12.7553 32.2551C12.7348 32.3461 12.7776 32.4397 12.86 32.4833C13.9023 33.0342 15.8013 34.038 16.0213 34.1543C16.0339 34.1611 16.0491 34.1599 16.0608 34.1512L16.0621 34.1502C16.0774 34.1393 16.1401 34.0963 16.2049 34.0666C16.3145 34.0162 16.4353 33.9897 16.556 33.9883C16.5561 33.9883 16.5564 33.9883 16.5565 33.9883C16.5621 33.9883 16.5621 33.9883 16.5676 33.9883C16.7082 33.9898 16.8478 34.0253 16.9719 34.093ZM37.2677 32.9368L37.2679 32.9372L37.2675 32.9368H37.2677ZM37.2609 32.9303C37.2617 32.9311 37.2624 32.9319 37.2632 32.9328C37.2643 32.9336 37.2651 32.9344 37.2659 32.9352C37.2659 32.9352 37.2646 32.9338 37.2639 32.9332C37.2636 32.9329 37.2632 32.9326 37.2628 32.9322C37.2621 32.9315 37.2609 32.9303 37.2609 32.9303L37.2609 32.9303ZM37.2591 32.9287L37.2597 32.9292L37.259 32.9285C37.259 32.9285 37.2591 32.9285 37.2591 32.9287L37.2591 32.9287ZM38.4307 32.53L38.4305 32.531L38.4307 32.53ZM38.4316 32.5242C38.4316 32.5246 38.4316 32.525 38.4314 32.5254C38.4314 32.5263 38.431 32.5284 38.431 32.5284C38.4312 32.527 38.4314 32.5259 38.4317 32.5247C38.4318 32.5235 38.4318 32.5221 38.4321 32.5211C38.4321 32.5211 38.4318 32.5231 38.4317 32.5242L38.4316 32.5242ZM21.9847 32.1003L21.9836 32.1007L21.9847 32.1003ZM21.9905 32.098C21.9902 32.098 21.9898 32.0982 21.9894 32.0984C21.9885 32.0988 21.9866 32.0996 21.9866 32.0996C21.9877 32.0991 21.9889 32.0987 21.99 32.0982C21.9911 32.0976 21.9921 32.0972 21.9932 32.0968C21.9932 32.0968 21.9915 32.0976 21.9905 32.098H21.9905ZM21.9959 32.0957L21.9947 32.0961L21.9959 32.0957ZM33.2988 28.0987C33.2723 28.0876 33.2419 28.0934 33.2212 28.1133C32.928 28.3953 30.8304 30.4136 30.3393 30.886C30.2815 30.9418 30.2624 31.027 30.2908 31.1023C30.2908 31.1023 30.2908 31.1023 30.2908 31.1025C30.2943 31.1114 30.2975 31.1205 30.3008 31.1298C30.3268 31.2042 30.3927 31.2571 30.4707 31.2664C31.3813 31.373 36.54 31.9765 36.9789 32.0278C36.9966 32.0298 37.0136 32.0213 37.0227 32.0059L37.0238 32.0046C37.0238 32.0044 37.0238 32.0043 37.0238 32.0042C37.0399 31.9781 37.0376 31.9447 37.018 31.9212C36.71 31.5521 34.39 28.7712 33.9034 28.1879C33.8534 28.1279 33.7739 28.1014 33.698 28.1198C33.5682 28.1521 33.4297 28.1469 33.301 28.0995C33.3003 28.0992 33.2996 28.099 33.2988 28.0987V28.0987ZM10.571 31.8176C10.5708 31.8184 10.5707 31.8194 10.5706 31.8202L10.571 31.8176ZM28.6264 31.8089C28.6273 31.8101 28.6278 31.8116 28.6283 31.8128C28.629 31.8142 28.6297 31.8154 28.6304 31.8167C28.6304 31.8167 28.6292 31.8144 28.6286 31.8134C28.6285 31.8128 28.6283 31.8124 28.6282 31.8123C28.6277 31.8112 28.6264 31.8089 28.6264 31.8089V31.8089ZM28.6256 31.8071C28.6258 31.8072 28.6258 31.8074 28.626 31.8075L28.6248 31.8053C28.6248 31.8053 28.6253 31.8066 28.6256 31.8071ZM38.0297 31.7971L38.0329 31.7985C38.0329 31.7985 38.0328 31.7985 38.0327 31.7984C38.032 31.7981 38.0297 31.7971 38.0297 31.7971ZM38.0263 31.7954L38.0297 31.7971C38.0297 31.7971 38.0285 31.7965 38.0278 31.7962C38.0277 31.7961 38.0274 31.796 38.0271 31.7958C38.0268 31.7958 38.0263 31.7954 38.0263 31.7954H38.0263ZM38.0228 31.794L38.0256 31.7952C38.0247 31.7948 38.0237 31.7944 38.0228 31.794ZM38.021 31.7933H38.0212C38.021 31.7933 38.021 31.7933 38.021 31.7933ZM11.6034 21.9709C11.5459 21.9149 11.4598 21.9009 11.3876 21.9357C11.3878 21.9365 11.3878 21.9365 11.3878 21.9365C11.3229 21.9683 11.2816 22.0346 11.2814 22.107C11.278 23.1541 11.2611 30.3156 11.2591 31.2497C11.259 31.3073 11.2889 31.3606 11.3378 31.3905C11.3393 31.3913 11.3409 31.3923 11.3424 31.3932C11.3437 31.394 11.3449 31.395 11.3465 31.3958C11.3811 31.418 11.4136 31.4434 11.4433 31.4721C11.4437 31.4722 11.4438 31.4726 11.4442 31.4731C11.4477 31.4765 11.4679 31.4964 11.4856 31.5173C11.4883 31.5205 11.4907 31.5234 11.493 31.5267C11.5008 31.5369 11.5238 31.5674 11.5238 31.5674C11.5349 31.5841 11.5492 31.608 11.5492 31.608C11.5561 31.6206 11.557 31.6213 11.5595 31.6264C11.5607 31.6272 11.562 31.6276 11.5632 31.6276C11.7261 31.6224 20.5121 31.2724 20.8903 31.2574C20.8975 31.257 20.904 31.2518 20.9056 31.2446C20.9173 31.2007 20.9132 31.2164 20.9153 31.2093L20.933 31.1567C20.9343 31.1525 20.936 31.1482 20.9379 31.144C20.9426 31.1317 20.9529 31.107 20.9548 31.1027C20.9611 31.0888 20.958 31.0724 20.9471 31.0618C20.5106 30.637 12.6005 22.9408 11.6033 21.9708L11.6034 21.9709ZM27.1096 19.887C27.1023 19.8723 27.0871 19.863 27.0707 19.863C26.7379 19.863 23.4263 19.863 22.7025 19.863C22.6234 19.863 22.5511 19.9087 22.5171 19.9804C22.4403 20.1449 22.3139 20.2818 22.1557 20.3722C22.1372 20.3827 22.1182 20.3925 22.0991 20.4015C22.0274 20.4356 21.9817 20.508 21.9817 20.5876C21.9813 21.7259 21.9813 29.382 21.9813 30.508C21.9813 30.5868 22.0257 30.6585 22.0961 30.6934C22.1596 30.725 22.2193 30.7645 22.273 30.8111C22.2838 30.8204 22.2844 30.8213 22.2882 30.8246C22.3067 30.8418 22.3315 30.8672 22.3315 30.8672C22.3431 30.8796 22.3586 30.897 22.3586 30.897C22.3696 30.9099 22.384 30.9279 22.384 30.9279C22.3919 30.9381 22.3934 30.9403 22.3934 30.9403C22.4025 30.9524 22.4142 30.969 22.4142 30.969C22.4279 30.9889 22.4384 31.0059 22.4397 31.0079C22.4578 31.0378 22.4766 31.0746 22.4766 31.0746C22.4925 31.1083 22.5021 31.1302 22.5131 31.16C22.5197 31.1782 22.537 31.1904 22.5565 31.1904C22.9855 31.1904 27.431 31.1904 28.2932 31.1904C28.3755 31.1904 28.4497 31.1413 28.482 31.0651C28.4996 31.0218 28.521 30.9799 28.5454 30.9397C28.5461 30.9385 28.5468 30.9374 28.5473 30.9365C28.5518 30.9296 28.5803 30.8847 28.6071 30.8501C28.7869 30.6169 29.0738 30.4734 29.3713 30.4703C29.3715 30.4703 29.372 30.4703 29.372 30.4703C29.3783 30.4703 29.3783 30.4703 29.3847 30.4703C29.5133 30.4715 29.6402 30.5001 29.7577 30.5513C29.8334 30.5839 29.9211 30.568 29.9805 30.5107C30.5029 30.0084 32.7944 27.8037 32.8935 27.7082C32.8955 27.7065 32.8962 27.7034 32.8949 27.7009C32.8947 27.7 32.8943 27.699 32.894 27.6982C32.8832 27.6687 32.8812 27.6628 32.8768 27.6476L32.8729 27.6334C32.8725 27.6322 32.8721 27.631 32.8718 27.6298C32.8706 27.6257 32.8701 27.623 32.8694 27.6211C32.869 27.6192 32.8686 27.6173 32.8681 27.6154C32.8572 27.5681 32.8505 27.5206 32.8487 27.4725C32.8486 27.4699 32.8484 27.4675 32.8484 27.4649C32.8484 27.4502 32.849 27.3979 32.8544 27.3577C32.8548 27.3549 32.8591 27.3223 32.8672 27.289C32.8674 27.288 32.8676 27.2872 32.8678 27.2866C32.8678 27.2864 32.8724 27.269 32.8737 27.2637C32.8742 27.2614 32.8749 27.259 32.8756 27.2567C32.8774 27.2507 32.8778 27.2499 32.8778 27.2499C32.8825 27.2336 32.8902 27.2128 32.8932 27.2047C32.8939 27.2025 32.8947 27.2003 32.8957 27.1981C32.9056 27.1731 32.9166 27.1487 32.9293 27.125C32.9293 27.125 32.9294 27.1247 32.9295 27.1247C32.9295 27.1246 32.9366 27.1115 32.9371 27.1106C32.9381 27.1088 32.939 27.1072 32.9399 27.1056C32.962 27.0678 32.9795 27.0443 32.982 27.0412C32.9821 27.0408 32.9821 27.0408 32.9823 27.0407C32.9842 27.0381 32.9942 27.025 32.9982 27.0199C32.9994 27.0183 33.0007 27.0167 33.002 27.0151C33.0093 27.0062 33.018 26.9961 33.022 26.9915C33.0233 26.9897 33.0247 26.9882 33.0262 26.9868C33.0355 26.9767 33.0469 26.9649 33.051 26.9608C33.0524 26.9593 33.0538 26.958 33.0553 26.9565C33.0658 26.9463 33.0765 26.9365 33.0876 26.9269C33.1415 26.88 33.1675 26.8082 33.1557 26.7374C33.05 26.0928 32.5618 23.1284 32.451 22.4568C32.4385 22.3799 32.3839 22.3169 32.3099 22.2935C32.2056 22.2612 32.1067 22.2078 32.0191 22.1337C31.9986 22.1166 31.9728 22.0913 31.9661 22.0847C31.9649 22.0835 31.9638 22.0824 31.9627 22.0813C31.9425 22.0607 31.9234 22.0391 31.9055 22.0165C31.9052 22.0161 31.9048 22.0156 31.9045 22.0152C31.9037 22.0144 31.8966 22.0051 31.8936 22.0012C31.8928 22.0001 31.892 21.999 31.8911 21.9979C31.8869 21.9925 31.8828 21.9868 31.8813 21.9848C31.8807 21.9839 31.8803 21.9833 31.8798 21.9825C31.8699 21.9686 31.8583 21.9508 31.8541 21.9444C31.8533 21.9432 31.8525 21.9419 31.8517 21.9406C31.8433 21.9267 31.8071 21.8601 31.8038 21.8533C31.7689 21.7793 31.7746 21.7836 31.7709 21.7735C31.7624 21.749 31.7615 21.7448 31.7582 21.7339C31.7531 21.717 31.7477 21.6946 31.7457 21.687C31.7451 21.6848 31.7447 21.6826 31.7443 21.6806C31.7352 21.6374 31.7327 21.6185 31.7327 21.6185C31.7258 21.5703 31.7305 21.6064 31.7271 21.5714C31.7271 21.5711 31.7252 21.5397 31.7244 21.5275C31.7243 21.524 31.7242 21.5206 31.724 21.517C31.7239 21.4988 31.724 21.4775 31.7242 21.471C31.7242 21.4697 31.7242 21.4682 31.7243 21.4669C31.7251 21.4494 31.7147 21.4332 31.6986 21.4266C31.4121 21.3095 28.9462 20.3027 28.4824 20.1133C28.4387 20.0953 28.3886 20.1039 28.353 20.1351V20.1353C28.3527 20.1354 28.3526 20.1355 28.3523 20.1358C28.1161 20.3373 27.7581 20.3914 27.4708 20.2482C27.4216 20.2239 27.3751 20.1942 27.3321 20.1602C27.3321 20.1602 27.3321 20.1602 27.3319 20.1602C27.3312 20.1597 27.3106 20.1434 27.2907 20.1255C27.2892 20.124 27.288 20.1228 27.2865 20.1216C27.2812 20.1165 27.2599 20.096 27.2597 20.0959C27.2223 20.0579 27.2177 20.0511 27.2171 20.0499C27.2171 20.0499 27.2171 20.0499 27.2171 20.0497C27.1986 20.0273 27.197 20.0253 27.1898 20.0159C27.1701 19.99 27.1518 19.9632 27.1356 19.9351C27.1345 19.9333 27.116 19.899 27.1114 19.8909C27.1107 19.8895 27.1101 19.8883 27.1095 19.8872V19.8871L27.1096 19.887ZM28.6348 31.0754C28.6347 31.0754 28.6347 31.0757 28.6345 31.0758C28.6343 31.0763 28.6338 31.0774 28.6338 31.0774L28.6348 31.0754V31.0754ZM28.6394 31.0663C28.6386 31.0678 28.6379 31.069 28.6372 31.0702C28.6367 31.0715 28.636 31.0727 28.6355 31.0739C28.6355 31.0739 28.6365 31.0717 28.6369 31.0708C28.6372 31.0704 28.6373 31.07 28.6376 31.0697C28.6381 31.0686 28.6394 31.0663 28.6394 31.0663V31.0663ZM28.6409 31.0635C28.6407 31.0637 28.6406 31.064 28.6405 31.0643C28.6405 31.0644 28.6403 31.0644 28.6403 31.0644L28.6409 31.0635ZM22.0089 30.8111C22.0093 30.8113 22.0097 30.8114 22.0101 30.8117C22.0109 30.8121 22.0128 30.8129 22.0128 30.8129C22.0117 30.8125 22.0105 30.8119 22.0094 30.8114C22.0083 30.8109 22.0072 30.8103 22.0059 30.8099C22.0059 30.8099 22.0078 30.8108 22.0089 30.8111ZM22.0025 30.8084L22.0052 30.8097C22.0044 30.8093 22.0034 30.8087 22.0025 30.8084ZM17.6311 17.2574C17.566 17.2141 17.4809 17.2164 17.418 17.263C17.1912 17.4315 16.888 17.4886 16.6137 17.4121C16.5431 17.3925 16.4756 17.364 16.4122 17.3279C16.3398 17.2864 16.2496 17.2931 16.184 17.3446C15.475 17.9008 11.7679 20.8104 11.7584 20.8178L11.7585 20.8179C11.7586 20.8184 11.7634 20.8274 11.7695 20.8402V20.8403C11.7739 20.8501 11.7754 20.8531 11.7754 20.8531C11.7906 20.8869 11.8069 20.934 11.8086 20.9388C11.8165 20.9636 11.8253 20.9985 11.8253 20.9985C11.8287 21.0128 11.8329 21.0324 11.8329 21.0324C11.8363 21.0496 11.8399 21.0732 11.8399 21.0732C11.8443 21.1021 11.8471 21.1313 11.8481 21.1604C11.8481 21.1615 11.8482 21.1626 11.8482 21.1634C11.8483 21.1666 11.8487 21.1862 11.8487 21.1929C11.8488 21.196 11.8488 21.1991 11.8487 21.2024C11.848 21.2453 11.8469 21.2551 11.8452 21.2713C11.8451 21.2734 11.8448 21.2751 11.8447 21.2769C11.8436 21.2856 11.8403 21.3118 11.8391 21.3216C11.8389 21.3244 11.8384 21.3272 11.8379 21.33C11.8355 21.3443 11.8324 21.3606 11.8314 21.365C11.8313 21.3659 11.831 21.3667 11.8307 21.3675C11.8199 21.4194 11.8361 21.4731 11.8741 21.5101C12.667 22.2815 20.5334 29.9352 21.2705 30.6524C21.3028 30.6838 21.3507 30.6929 21.3922 30.6755C21.3922 30.6752 21.3922 30.6752 21.3922 30.6752C21.4353 30.6571 21.4633 30.6149 21.4633 30.5681C21.4634 29.6797 21.4634 21.7437 21.4634 20.5836C21.4634 20.5037 21.4173 20.4307 21.3453 20.3968C21.2174 20.3376 21.1025 20.2474 21.0143 20.1275C20.8886 19.9568 20.832 19.7353 20.8478 19.5255C20.8537 19.4511 20.8187 19.3795 20.7569 19.3384C20.2567 19.0043 18.1511 17.6034 17.6311 17.2574ZM44.1292 30.075L44.128 30.0754L44.1292 30.075ZM44.135 30.0727C44.135 30.0728 44.1345 30.0729 44.1339 30.0731C44.1332 30.0735 44.1309 30.0743 44.1309 30.0743C44.1322 30.0738 44.1332 30.0733 44.1345 30.0729C44.1355 30.0724 44.1368 30.072 44.138 30.0715C44.138 30.0715 44.1362 30.0723 44.135 30.0727H44.135ZM44.1408 30.0702L44.1397 30.0708L44.1408 30.0702ZM44.5612 29.52V29.5211V29.52ZM44.5617 29.514C44.5617 29.5144 44.5617 29.5148 44.5617 29.5154C44.5617 29.5163 44.5612 29.5184 44.5612 29.5184C44.5612 29.5171 44.5617 29.5158 44.5617 29.5147C44.5617 29.5135 44.5624 29.5122 44.5624 29.5109C44.5624 29.5109 44.5617 29.5131 44.5617 29.514V29.514ZM43.1739 29.2874C43.1739 29.2876 43.1739 29.2879 43.1733 29.2882C43.1733 29.2884 43.1733 29.2889 43.1733 29.2889L43.1739 29.2874V29.2874ZM43.1756 29.2785C43.1751 29.2797 43.1751 29.281 43.1745 29.2823C43.1745 29.2835 43.1745 29.2848 43.1739 29.286C43.1739 29.286 43.1745 29.2841 43.1745 29.283C43.1745 29.2826 43.1745 29.2822 43.1751 29.2818C43.1751 29.2807 43.1756 29.2785 43.1756 29.2785L43.1756 29.2785ZM44.1537 28.7765L44.1572 28.778V28.7778C44.156 28.7775 44.1537 28.7765 44.1537 28.7765ZM44.1502 28.7748L44.1537 28.7765C44.1537 28.7765 44.1525 28.7759 44.1525 28.7755C44.1525 28.7755 44.152 28.7754 44.152 28.7752C44.1507 28.7751 44.1502 28.7748 44.1502 28.7748ZM44.1467 28.7732L44.1497 28.7744C44.149 28.774 44.1484 28.7736 44.1467 28.7732ZM42.9347 21.1881C42.8648 21.1481 42.778 21.1527 42.7123 21.2002C42.2675 21.5239 40.6736 22.6838 40.2288 23.0072C40.1628 23.0551 40.1317 23.1377 40.1485 23.2175C40.1881 23.3998 40.1762 23.5933 40.1122 23.7691C40.1012 23.7993 40.0887 23.829 40.0749 23.858C40.041 23.9286 40.05 24.0122 40.0978 24.074C40.5105 24.605 42.3362 26.9549 43.1565 28.0113C43.2118 28.0824 43.3067 28.1093 43.3905 28.0777C43.4743 28.0462 43.5284 27.9635 43.5238 27.8733C43.4388 26.2728 43.2252 22.2353 43.1822 21.4258C43.178 21.345 43.1268 21.2741 43.0523 21.2445C43.0121 21.2287 42.9725 21.2099 42.9348 21.1881H42.9347ZM34.0713 27.3529C34.0713 27.3533 34.0715 27.354 34.0715 27.3544C34.0717 27.3552 34.0718 27.3566 34.0718 27.3566C34.0717 27.3556 34.0716 27.3546 34.0715 27.3537C34.0712 27.3526 34.0711 27.3517 34.0709 27.3506C34.0709 27.3506 34.0712 27.3521 34.0713 27.3529ZM33.0017 27.3473C33.0017 27.3477 33.0017 27.3479 33.0017 27.3481C33.0016 27.3484 33.0016 27.3488 33.0016 27.3488L33.0017 27.3474V27.3473ZM33.0031 27.3407C33.0028 27.3416 33.0027 27.3426 33.0026 27.3435C33.0023 27.3445 33.0022 27.3454 33.002 27.3463C33.002 27.3463 33.0023 27.345 33.0023 27.3442C33.0024 27.3438 33.0026 27.3433 33.0027 27.3429C33.0028 27.3421 33.0031 27.3406 33.0031 27.3406V27.3407ZM33.3205 21.8788C33.3073 21.8749 33.2931 21.8809 33.2867 21.8931C33.2776 21.9096 33.2825 21.9011 33.2738 21.9159L33.2419 21.9668C33.2098 22.0123 33.22 21.9973 33.2155 22.0033C33.2155 22.0033 33.2155 22.0033 33.2154 22.0033C33.1891 22.0373 33.1982 22.0252 33.1935 22.0308C33.1935 22.0308 33.1851 22.0405 33.182 22.0445C33.1809 22.0456 33.1798 22.0468 33.1788 22.048C33.1638 22.0647 33.1438 22.0852 33.1382 22.0911C33.1368 22.0924 33.1352 22.0939 33.1338 22.0954C33.1271 22.1019 33.1255 22.1034 33.1255 22.1034C33.1147 22.1135 33.0999 22.1267 33.0998 22.1268C33.0996 22.1268 33.0995 22.1268 33.0994 22.127C33.0613 22.1605 33.0368 22.1765 33.0366 22.1765C33.0366 22.1766 33.0366 22.1766 33.0366 22.1766C32.9997 22.2023 33.0082 22.1971 32.9738 22.2174C32.9532 22.2293 32.9423 22.2527 32.9462 22.2759C33.0124 22.6788 33.5584 25.9938 33.6682 26.6604C33.6795 26.7278 33.7247 26.784 33.7878 26.809C33.7881 26.8082 33.7881 26.8082 33.7881 26.8082C33.8471 26.8312 33.9135 26.8234 33.9659 26.7876C34.524 26.4043 37.4962 24.3578 38.1522 23.9064C38.2238 23.8569 38.2569 23.767 38.2342 23.6824C38.2197 23.6323 38.21 23.5807 38.205 23.5285C38.2048 23.5257 38.2045 23.5231 38.2042 23.5202C38.2033 23.5019 38.1983 23.4115 38.2029 23.3524C38.203 23.35 38.2015 23.3476 38.1992 23.347C38.0482 23.3015 33.6764 21.986 33.3205 21.8788V21.8788ZM40.0218 23.5331V23.5334V23.5331ZM38.9868 14.4293C38.905 14.3965 38.8118 14.4211 38.7556 14.4889C38.0163 15.3733 33.5248 20.7502 33.2761 21.0482C33.2696 21.0558 33.2688 21.0666 33.2738 21.0752C33.2738 21.0753 33.2738 21.0753 33.2738 21.0753C33.2738 21.0754 33.2739 21.0756 33.2739 21.0757C33.275 21.0777 33.2835 21.0927 33.2835 21.0927C33.2896 21.1038 33.2908 21.1061 33.2908 21.1061C33.2913 21.1072 33.2978 21.1199 33.3043 21.1333C33.31 21.145 33.3124 21.1506 33.3132 21.1522C33.3337 21.198 33.3414 21.2232 33.3414 21.2232C33.3531 21.2589 33.3577 21.2764 33.3577 21.2764C33.3705 21.3241 33.4069 21.3619 33.4542 21.376C34.028 21.5489 37.5275 22.6019 38.2498 22.8193C38.3251 22.8419 38.4069 22.8194 38.46 22.7611C38.6402 22.5644 38.9012 22.443 39.1725 22.4385C39.1728 22.4385 39.1731 22.4385 39.1734 22.4385C39.1797 22.4385 39.1861 22.4385 39.1924 22.4385C39.1927 22.4385 39.193 22.4385 39.1934 22.4385C39.3741 22.4405 39.5523 22.4943 39.7055 22.5888C39.7757 22.6323 39.8655 22.6289 39.9327 22.58C40.4448 22.2079 42.4439 20.7535 42.533 20.689C42.5341 20.6877 42.5346 20.6853 42.5341 20.6833C42.5306 20.6716 42.53 20.6675 42.53 20.6675C42.5295 20.666 42.5196 20.6291 42.5196 20.6289V20.6288C42.505 20.5678 42.505 20.5596 42.505 20.5583V20.5582C42.5015 20.5339 42.4987 20.5096 42.4962 20.4851C42.4904 20.4103 42.4934 20.4262 42.4939 20.4049C42.4945 20.3575 42.4945 20.3795 42.4951 20.3643C42.4951 20.3641 42.4974 20.3374 42.498 20.3273C42.4987 20.3252 42.4987 20.3229 42.4987 20.3205C42.5015 20.2954 42.5033 20.2855 42.5068 20.2628C42.5068 20.2624 42.5131 20.2302 42.5131 20.2292C42.5167 20.2145 42.5154 20.219 42.5172 20.213L42.523 20.1895C42.523 20.1879 42.5237 20.1864 42.5242 20.1849C42.526 20.1791 42.5306 20.1625 42.5313 20.1569C42.5318 20.1553 42.533 20.1537 42.533 20.1518C42.5417 20.1237 42.551 20.1002 42.5516 20.0971C42.5563 20.0859 42.5581 20.0819 42.5581 20.0819C42.5586 20.0805 42.5679 20.0582 42.572 20.0497C42.5725 20.0472 42.5737 20.0447 42.575 20.0421C42.5917 20.0055 42.5965 19.997 42.6063 19.9797C42.6068 19.9788 42.6075 19.9777 42.6081 19.9767C42.6122 19.9699 42.6285 19.9416 42.6285 19.9414C42.6296 19.9409 42.6296 19.9403 42.6303 19.9398C42.6477 19.9107 42.65 19.9086 42.6558 19.9003L42.668 19.8838L42.6692 19.8821C42.7013 19.839 42.7041 19.7806 42.6763 19.7343C42.3124 19.1291 39.9898 15.2661 39.5749 14.5761C39.5386 14.5158 39.4716 14.482 39.402 14.4889C39.2616 14.5018 39.1182 14.4808 38.9868 14.4293L38.9868 14.4293ZM32.0824 21.9968L32.0826 21.9971L32.0822 21.9967C32.0822 21.9967 32.0822 21.9968 32.0824 21.9968ZM32.0755 21.9903C32.0763 21.9911 32.0771 21.9919 32.078 21.9926C32.0789 21.9934 32.0796 21.9942 32.0806 21.995C32.0806 21.995 32.0793 21.9938 32.0784 21.9931C32.0782 21.9929 32.0777 21.9926 32.0775 21.9922C32.0768 21.9915 32.0754 21.9903 32.0754 21.9903L32.0755 21.9903ZM32.0739 21.9887L32.0744 21.9891L32.0737 21.9884L32.0738 21.9886L32.0739 21.9887ZM11.2855 21.8269C11.2851 21.8272 11.2847 21.8273 11.2844 21.8275C11.2834 21.8279 11.2818 21.8285 11.2818 21.8285C11.2828 21.8281 11.2839 21.8276 11.285 21.8272C11.286 21.8268 11.287 21.8262 11.2883 21.8257C11.2883 21.8257 11.2865 21.8265 11.2856 21.8269H11.2855ZM11.2907 21.8248L11.2896 21.8253L11.2907 21.8248ZM10.5549 21.6915L10.5553 21.6919L10.5549 21.6915ZM10.5482 21.6851C10.5492 21.6858 10.5499 21.6866 10.5507 21.6875C10.5515 21.6884 10.5525 21.6889 10.5532 21.6898C10.5532 21.6898 10.5519 21.6885 10.5512 21.688C10.5508 21.6876 10.5505 21.6873 10.5503 21.687C10.5496 21.6863 10.5482 21.6851 10.5482 21.6851L10.5482 21.6851ZM10.5466 21.6834L10.547 21.6841L10.5463 21.6834H10.5466H10.5466ZM11.6983 21.2916L11.6982 21.2926L11.6983 21.2916ZM11.6991 21.2858C11.699 21.2862 11.699 21.2866 11.699 21.2871C11.6987 21.2881 11.6986 21.2898 11.6986 21.2898C11.6987 21.2887 11.6989 21.2876 11.699 21.2864C11.6991 21.2851 11.6994 21.2838 11.6994 21.2828C11.6994 21.2828 11.6993 21.2847 11.6991 21.2858ZM10.3545 21.0662C10.3544 21.0664 10.3544 21.0667 10.3543 21.067C10.3543 21.0673 10.3541 21.0677 10.3541 21.0677L10.3545 21.0662V21.0662ZM10.3561 21.0576C10.3559 21.0589 10.3556 21.0602 10.3553 21.0613C10.355 21.0625 10.3549 21.0637 10.3546 21.0648C10.3546 21.0648 10.355 21.0629 10.3552 21.062C10.3553 21.0616 10.3554 21.0612 10.3554 21.0608C10.3557 21.0597 10.3561 21.0576 10.3561 21.0576H10.3561ZM30.1913 15.5762C30.1557 15.5746 30.1227 15.5935 30.1069 15.6259C29.9141 16.0125 28.7569 18.3365 28.4865 18.8795C28.4536 18.9454 28.4582 19.0238 28.4987 19.0853C28.524 19.1221 28.5453 19.1611 28.5628 19.2015C28.563 19.2018 28.5632 19.2022 28.5633 19.2025C28.5633 19.2026 28.5726 19.2248 28.5726 19.2248C28.5887 19.2647 28.5929 19.2814 28.5929 19.2814C28.6009 19.3072 28.61 19.3437 28.61 19.3437C28.6135 19.3604 28.6179 19.3832 28.6179 19.3832C28.6224 19.4101 28.6264 19.4457 28.6269 19.4486C28.6305 19.4879 28.63 19.4925 28.6302 19.5052C28.6308 19.5315 28.6293 19.5672 28.629 19.5754C28.6289 19.5767 28.6289 19.5777 28.6288 19.5788C28.6274 19.5978 28.6382 19.6155 28.6557 19.6227C28.9462 19.7413 31.2979 20.7016 31.819 20.9144C31.8777 20.9383 31.9446 20.9259 31.9909 20.8828C31.9919 20.8818 31.9928 20.881 31.994 20.8801C31.9994 20.8752 32.0199 20.8574 32.0249 20.8527C32.0258 20.8521 32.0265 20.8514 32.0275 20.8507C32.0558 20.8272 32.0666 20.7885 32.0544 20.7537C31.8651 20.2111 30.454 16.1652 30.2688 15.634C30.2571 15.6004 30.2264 15.5775 30.1914 15.5756C30.1914 15.5762 30.1914 15.5762 30.1913 15.5762L30.1913 15.5762ZM31.1826 10.6303C31.1074 10.5993 31.0214 10.6163 30.9631 10.673C30.8786 10.7555 30.7786 10.8227 30.6698 10.8678C30.5935 10.8993 30.5436 10.9748 30.5436 11.0578C30.5432 11.6712 30.5432 13.9843 30.5432 14.2563C30.5432 14.2726 30.5516 14.2872 30.5651 14.2954C30.5652 14.2954 30.5652 14.2954 30.5652 14.2954C30.567 14.2959 30.5686 14.2977 30.5704 14.2977C30.5806 14.3048 30.6204 14.3311 30.6204 14.3311C30.647 14.3498 30.6726 14.3709 30.6961 14.393C30.6963 14.393 30.6963 14.393 30.6965 14.3937C30.6984 14.3953 30.7272 14.4235 30.7491 14.4498C30.7493 14.4498 30.7494 14.4504 30.7495 14.4504L30.7598 14.4633C30.7713 14.4785 30.7641 14.4668 30.7867 14.4995C30.7867 14.4995 30.8023 14.5223 30.8154 14.5444C30.8154 14.5444 30.8155 14.5445 30.8155 14.5451L30.8235 14.5591C30.837 14.5843 30.845 14.6 30.8546 14.6235C30.8554 14.6253 30.856 14.627 30.8567 14.6286C30.8597 14.6363 30.8707 14.6656 30.8707 14.6656C30.8773 14.6842 30.8846 14.7105 30.8846 14.7105C30.9164 14.8299 30.9164 14.959 30.8839 15.0742C30.8839 15.0749 30.8836 15.0749 30.8835 15.0749C30.8835 15.0754 30.8693 15.1239 30.8564 15.1538C30.8563 15.1543 30.8562 15.1543 30.8562 15.155C30.856 15.155 30.8374 15.1982 30.822 15.2258C30.8218 15.2258 30.8217 15.2263 30.8217 15.2263C30.8197 15.2293 30.799 15.2654 30.7779 15.2947C30.7768 15.2958 30.7757 15.2976 30.7745 15.2993C30.7717 15.3029 30.7599 15.3181 30.7564 15.3227C30.7557 15.3239 30.7548 15.3251 30.754 15.3257C30.7349 15.3492 30.7292 15.3808 30.7392 15.4098C30.9063 15.889 32.2671 19.7912 32.5276 20.5377C32.5526 20.6093 32.6146 20.6613 32.6893 20.6733C32.7106 20.6754 32.7316 20.6797 32.7524 20.6846C32.828 20.7036 32.9078 20.6776 32.9579 20.6175C33.6191 19.8283 37.7996 14.8234 38.427 14.072C38.4727 14.0171 38.4871 13.9428 38.4648 13.8749C38.4586 13.8569 38.453 13.8393 38.4483 13.8206C38.4476 13.8176 38.4468 13.8148 38.4461 13.8118C38.4415 13.7907 38.4222 13.6966 38.4196 13.6264C38.4196 13.6259 38.4196 13.6259 38.4196 13.6259C38.418 13.585 38.3926 13.5493 38.3546 13.5335C37.6895 13.2645 32.1163 11.0081 31.1826 10.6303H31.1826ZM44.1322 20.5157C44.1322 20.5161 44.1322 20.5166 44.1322 20.517C44.1322 20.5182 44.1315 20.5204 44.1315 20.5204C44.1315 20.5191 44.1322 20.5177 44.1322 20.5163C44.1322 20.5151 44.1327 20.5138 44.1327 20.5124C44.1327 20.5124 44.1322 20.5146 44.1322 20.5157ZM44.1333 20.5087L44.1328 20.511L44.1333 20.5087ZM11.2897 10.6292C11.2889 10.6297 11.2885 10.6303 11.2885 10.6315C11.2885 10.7549 11.2835 19.5178 11.2831 20.3456C11.2831 20.3821 11.3048 20.4149 11.3384 20.4288L11.3403 20.4296C11.3403 20.4296 11.3405 20.4296 11.3407 20.4297C11.3689 20.4421 11.4018 20.438 11.4261 20.4187C11.8361 20.097 15.2222 17.4393 15.8797 16.9232C15.9426 16.8738 15.9713 16.7925 15.9534 16.7144C15.9447 16.6801 15.9388 16.6451 15.935 16.6095C15.9234 16.5006 15.9308 16.3895 15.9566 16.2836C15.9572 16.2812 15.9577 16.279 15.9585 16.2767C15.9623 16.2624 15.981 16.1964 16.0011 16.148C16.004 16.1409 16.0275 16.0872 16.0507 16.0461C16.0567 16.0351 16.0553 16.0218 16.0471 16.0119C15.764 15.6918 11.3006 10.6421 11.2898 10.6292H11.2897ZM22.0088 20.2841L22.0121 20.2828L22.0088 20.2841ZM22.015 20.2814L22.0136 20.2821L22.015 20.2814ZM28.0753 20.1394L28.0743 20.1398L28.0753 20.1394ZM28.0809 20.1369C28.0805 20.1371 28.0801 20.1373 28.0797 20.1375C28.0787 20.1379 28.077 20.1386 28.077 20.1386C28.0781 20.1382 28.0791 20.1377 28.0802 20.1373C28.0813 20.1368 28.0824 20.1364 28.0833 20.1359C28.0833 20.1359 28.0817 20.1365 28.0809 20.1369H28.0809ZM28.0857 20.1349L28.0847 20.1353L28.0857 20.1349ZM42.7216 20.0692C42.7216 20.0693 42.7216 20.0696 42.7216 20.0697C42.7216 20.0701 42.721 20.0709 42.721 20.0709L42.7216 20.0691V20.0692ZM42.7262 20.0613C42.725 20.0624 42.7245 20.0635 42.7245 20.0646C42.7239 20.0656 42.7234 20.067 42.7227 20.068C42.7227 20.068 42.7234 20.0662 42.7239 20.0651C42.7244 20.0648 42.7244 20.0644 42.7244 20.064C42.7244 20.0631 42.7262 20.0613 42.7262 20.0613L42.7262 20.0613ZM42.7275 20.0586C42.7275 20.0589 42.7275 20.0591 42.7275 20.0594V20.0585C42.7275 20.0585 42.7275 20.0585 42.7275 20.0586ZM27.3742 20.006L27.3744 20.0063L27.374 20.0059C27.374 20.0059 27.374 20.006 27.3742 20.006ZM27.3677 19.9998C27.3684 20.0006 27.3691 20.0013 27.37 20.0021C27.3708 20.0029 27.3714 20.0037 27.3723 20.0044C27.3723 20.0044 27.3711 20.0032 27.3704 20.0025C27.37 20.0021 27.3697 20.0021 27.3694 20.0017C27.3687 20.001 27.3676 19.9998 27.3676 19.9998L27.3677 19.9998ZM27.3659 19.9982L27.3664 19.9987L27.3657 19.998C27.3657 19.998 27.3657 19.9981 27.3659 19.9981L27.3659 19.9982ZM21.0575 19.9206C21.0576 19.9209 21.0577 19.9212 21.0579 19.9213C21.0581 19.922 21.0588 19.9234 21.0588 19.9234L21.0572 19.92C21.0572 19.92 21.0573 19.9204 21.0575 19.9207V19.9206ZM21.0564 19.9185C21.0565 19.9185 21.0566 19.9187 21.0566 19.9188L21.0557 19.9167C21.0557 19.9167 21.0562 19.9179 21.0564 19.9185ZM43.9033 19.8677L43.9045 19.8685C43.9045 19.8685 43.904 19.8684 43.904 19.8681L43.9033 19.8677V19.8677ZM43.9022 19.8666C43.9016 19.8657 43.9005 19.8648 43.8999 19.864L43.9022 19.8666ZM27.8537 18.7196C27.9338 18.7221 28.0079 18.6777 28.0437 18.6057C28.2522 18.1873 28.9209 16.8444 29.3147 16.0535C29.355 15.9727 29.3381 15.8743 29.273 15.812C29.2079 15.7495 29.1098 15.7369 29.0311 15.7808C27.7564 16.4932 24.7199 18.1904 23.3497 18.9562C23.2679 19.0018 23.2271 19.0974 23.2508 19.1884C23.2743 19.2795 23.3559 19.3431 23.4496 19.3431C24.6824 19.3431 26.9317 19.3431 27.041 19.3431C27.0436 19.3431 27.0456 19.3412 27.0462 19.3389L27.0463 19.338C27.0532 19.3102 27.055 19.3048 27.055 19.3048C27.0601 19.2876 27.0675 19.2651 27.0681 19.2627C27.0694 19.2591 27.0706 19.2555 27.072 19.2518C27.0777 19.2366 27.0786 19.2342 27.081 19.2279C27.0814 19.2268 27.0821 19.2256 27.0825 19.2245C27.0852 19.2184 27.0958 19.194 27.0998 19.1843C27.1014 19.1809 27.1031 19.1775 27.1047 19.1741C27.1412 19.1005 27.1665 19.0645 27.2007 19.0218C27.2012 19.0212 27.2017 19.0205 27.2022 19.0198C27.2042 19.0174 27.2114 19.0086 27.215 19.0042C27.2165 19.0024 27.218 19.0007 27.2196 18.9989C27.2303 18.9865 27.2439 18.972 27.248 18.9674C27.2495 18.9659 27.251 18.9644 27.2525 18.9628C27.2795 18.9354 27.3144 18.9056 27.3248 18.8968C27.327 18.895 27.3293 18.8933 27.3314 18.8915C27.4742 18.7815 27.6509 18.7185 27.8324 18.7192H27.8325C27.8395 18.7192 27.8467 18.7194 27.8537 18.7196V18.7196ZM29.7032 10.6772C29.641 10.6186 29.5492 10.6046 29.4725 10.6421C28.235 11.2496 19.0759 15.749 17.9109 16.321C17.8403 16.3556 17.7956 16.4277 17.7958 16.5066C17.797 16.5391 17.795 16.5715 17.7915 16.6039C17.7824 16.6806 17.8173 16.756 17.8815 16.7986C18.3862 17.1361 20.4705 18.523 21.0011 18.8761C21.0704 18.9222 21.1608 18.9218 21.2297 18.8751C21.3704 18.7782 21.5394 18.721 21.7166 18.7192C21.7223 18.7192 21.7223 18.7192 21.7281 18.7192C21.8982 18.7208 22.066 18.7767 22.2078 18.8713C22.2716 18.914 22.3537 18.9171 22.4206 18.8796C23.3151 18.3804 29.0596 15.1696 29.512 14.917C29.5293 14.907 29.5401 14.8883 29.5403 14.869C29.5403 14.8679 29.5405 14.8672 29.5405 14.8662C29.5432 14.8089 29.5453 14.803 29.548 14.7871V14.7866C29.548 14.7866 29.5524 14.7615 29.554 14.7527C29.5546 14.7498 29.5551 14.7468 29.5557 14.7445C29.5607 14.7223 29.5684 14.6948 29.5684 14.6948C29.5689 14.6931 29.5695 14.6907 29.5701 14.6895C29.5758 14.6708 29.5769 14.6679 29.5801 14.6591C29.5803 14.6586 29.5803 14.6586 29.5803 14.6586C29.5818 14.6545 29.5939 14.6211 29.6092 14.5901H29.6093C29.6093 14.5896 29.6275 14.5533 29.6453 14.5247C29.6464 14.5235 29.6473 14.5217 29.6483 14.5201C29.6505 14.5171 29.6634 14.4978 29.6657 14.4943C29.6672 14.4925 29.6687 14.4902 29.6705 14.4872C29.6999 14.4463 29.7162 14.4299 29.7379 14.4078C29.7809 14.3639 29.8297 14.3264 29.8827 14.2955C29.8852 14.2944 29.8877 14.2926 29.8903 14.2914C29.8941 14.2896 29.9011 14.2861 29.9103 14.2815C29.9805 14.2463 30.0251 14.175 30.0251 14.0966C30.0254 13.5522 30.0254 11.549 30.0254 11.0104C30.0254 10.9339 29.9828 10.8631 29.9149 10.8274C29.8378 10.7883 29.7665 10.7373 29.7032 10.6772V10.6772ZM17.0057 17.289L17.0049 17.2891L17.0057 17.289ZM17.0138 17.2875C17.0134 17.2876 17.013 17.2876 17.0126 17.2877C17.0114 17.2879 17.0088 17.2884 17.0088 17.2884C17.0104 17.2882 17.0118 17.2879 17.0133 17.2876C17.0146 17.2873 17.016 17.2871 17.0175 17.2868C17.0175 17.2868 17.015 17.2872 17.0138 17.2875H17.0138ZM17.6474 16.6109V16.6112V16.6109ZM16.1619 16.1431C16.1618 16.1434 16.1618 16.1435 16.1616 16.1438C16.1614 16.1442 16.1611 16.145 16.1611 16.145L16.1619 16.1431H16.1619ZM17.5515 15.875C17.5673 15.893 17.5932 15.8981 17.6147 15.8877C18.2039 15.5983 25.7116 11.9104 28.2035 10.6865C28.2895 10.6445 28.3351 10.5479 28.3135 10.4543C28.2919 10.3608 28.2089 10.2948 28.1132 10.2948C26.2586 10.2948 22.0941 10.2948 21.4816 10.2948C21.4379 10.2948 21.3981 10.3199 21.3795 10.3597C21.3794 10.3597 21.3794 10.3597 21.3793 10.3602C21.3793 10.3602 21.3732 10.3731 21.3702 10.3795C21.3693 10.3813 21.3683 10.383 21.3672 10.3853C21.3636 10.3924 21.3601 10.3988 21.3601 10.3988C21.3598 10.3995 21.3597 10.4006 21.3594 10.4012C21.3474 10.4234 21.3294 10.4526 21.3244 10.4602C21.3234 10.4619 21.3223 10.4637 21.3213 10.4655C21.3161 10.4731 21.3149 10.4748 21.3149 10.4748C21.2957 10.5029 21.302 10.4941 21.2977 10.4994C21.2977 10.4994 21.288 10.5129 21.2846 10.5169C21.2837 10.5182 21.2827 10.5199 21.2816 10.521C21.2758 10.5286 21.2745 10.5304 21.2745 10.5304C21.2661 10.5403 21.2553 10.5532 21.2511 10.5578C21.2501 10.559 21.2492 10.5603 21.248 10.5614C21.2389 10.5713 21.2274 10.5836 21.2242 10.5877C21.2233 10.5882 21.2224 10.5895 21.2216 10.59C21.2144 10.5971 21.2127 10.5988 21.2127 10.5988C21.2044 10.607 21.1961 10.6146 21.1877 10.6228C21.1664 10.6422 21.1442 10.6602 21.121 10.6772C21.1202 10.6777 21.1194 10.679 21.1184 10.6795C21.1105 10.6848 21.0749 10.7094 21.0462 10.7264C20.9058 10.807 20.7422 10.8421 20.5814 10.8292C20.5034 10.8233 20.4289 10.8631 20.3896 10.931C19.9665 11.6578 17.7585 15.4578 17.5461 15.8231C17.5364 15.8398 17.5385 15.8612 17.5515 15.8751V15.875ZM19.8884 10.314C19.8838 10.3018 19.8726 10.2947 19.86 10.2947C19.4719 10.2947 13.8085 10.2947 12.1434 10.2947C12.0625 10.2947 11.9893 10.3427 11.9561 10.4163C11.923 10.4906 11.9361 10.5772 11.9898 10.6379C12.9323 11.7045 15.779 14.9258 16.3428 15.5631C16.3978 15.6254 16.4847 15.6485 16.5632 15.6213C16.6556 15.5894 16.7531 15.5716 16.8513 15.5698C16.8514 15.5698 16.8516 15.5698 16.8517 15.5698C16.8578 15.5698 16.8637 15.5698 16.8698 15.5698C16.8701 15.5698 16.8705 15.5698 16.8708 15.5698C16.8981 15.5705 16.9254 15.5716 16.9526 15.5746C17.0322 15.5819 17.109 15.5427 17.1493 15.4734C17.5753 14.7415 19.777 10.952 19.9999 10.5683C20.011 10.5496 20.0094 10.5257 19.9959 10.508C19.9952 10.5075 19.9946 10.507 19.9941 10.5057C19.9808 10.4882 19.965 10.4636 19.9589 10.4543C19.9573 10.4525 19.9558 10.4496 19.9543 10.4473C19.9496 10.4397 19.9446 10.4309 19.9427 10.4274C19.942 10.4268 19.9415 10.4256 19.9409 10.4251C19.9331 10.4111 19.9369 10.418 19.9298 10.4046C19.9293 10.404 19.9289 10.4022 19.9284 10.4017C19.9231 10.3918 19.9008 10.3467 19.8883 10.314L19.8884 10.314ZM30.7561 14.7942C30.7561 14.7947 30.7563 14.7947 30.7564 14.7954C30.7565 14.796 30.7568 14.7977 30.7568 14.7977C30.7565 14.7965 30.7564 14.796 30.7563 14.7947C30.7562 14.7936 30.7559 14.7924 30.7558 14.7919C30.7558 14.7919 30.756 14.793 30.7561 14.7942ZM29.6935 14.7884C29.6935 14.7889 29.6935 14.7889 29.6933 14.7889C29.6933 14.7901 29.6933 14.7901 29.6933 14.7901L29.6935 14.7883V14.7884ZM29.6948 14.782C29.6947 14.7831 29.6944 14.7843 29.6943 14.7848C29.694 14.7853 29.6939 14.7871 29.6938 14.7878C29.6938 14.7878 29.694 14.7866 29.6941 14.7854C29.6941 14.7848 29.6943 14.7848 29.6943 14.7848C29.6945 14.7836 29.6948 14.782 29.6948 14.782V14.782ZM40.0633 13.692C40.0633 13.6926 40.0628 13.6926 40.0628 13.6931C40.0628 13.6944 40.0628 13.6967 40.0628 13.6967C40.0628 13.6954 40.0628 13.6937 40.0628 13.6926C40.0633 13.6914 40.0633 13.6896 40.0633 13.6885C40.0633 13.6885 40.0633 13.6908 40.0633 13.692V13.692ZM40.0638 13.685V13.6873V13.685ZM39.8331 13.0411L39.8344 13.0418H39.8338L39.8331 13.0411ZM39.8291 13.0376L39.8319 13.0401C39.8319 13.0401 39.8319 13.0401 39.8314 13.0394C39.8314 13.0394 39.8314 13.0394 39.8308 13.0388C39.8303 13.0383 39.8291 13.0376 39.8291 13.0376ZM20.8898 10.6421H20.889H20.8898ZM20.8956 10.6397C20.8952 10.6403 20.8948 10.6403 20.8944 10.6403C20.8934 10.6409 20.8918 10.6414 20.8918 10.6414C20.8929 10.6409 20.894 10.6409 20.8951 10.6403C20.896 10.6397 20.8971 10.6391 20.8982 10.6391C20.8982 10.6391 20.8964 10.6397 20.8956 10.6397H20.8956ZM20.9006 10.6379L20.8995 10.6386L20.9006 10.6379ZM10.665 10.3959C10.6652 10.3959 10.6652 10.3959 10.6652 10.3959H10.6648H10.665ZM10.6599 10.3918C10.6606 10.3923 10.6611 10.3929 10.6617 10.3936C10.6624 10.3941 10.6629 10.3947 10.6636 10.3952C10.6636 10.3952 10.6626 10.3941 10.6622 10.3936C10.6619 10.3936 10.6616 10.3929 10.6613 10.3929C10.6608 10.3923 10.66 10.3918 10.66 10.3918H10.6599ZM10.6587 10.39C10.6588 10.3905 10.659 10.3905 10.6591 10.3905L10.6584 10.39C10.6584 10.39 10.6584 10.39 10.6587 10.39H10.6587ZM10.5147 9.92271C10.5147 9.92271 10.5147 9.92271 10.5147 9.9234C10.5146 9.9234 10.5146 9.92394 10.5146 9.92394L10.5147 9.92271ZM10.5159 9.91632C10.5158 9.91685 10.5155 9.9181 10.5154 9.91863C10.5151 9.91985 10.5151 9.92041 10.515 9.92163C10.515 9.92163 10.5151 9.92041 10.5154 9.91985C10.5154 9.91932 10.5154 9.91863 10.5155 9.91807C10.5155 9.91754 10.5159 9.91629 10.5159 9.91629V9.91632ZM29.6495 9.6754C29.6494 9.67593 29.6494 9.67593 29.6492 9.67593C29.6491 9.67662 29.6486 9.67771 29.6486 9.67771L29.6495 9.6754ZM29.6508 9.67309C29.6508 9.67309 29.6506 9.67362 29.6505 9.67362C29.6505 9.67415 29.6501 9.67415 29.6501 9.67415L29.652 9.67076C29.652 9.67076 29.6513 9.67238 29.6509 9.67307L29.6508 9.67309ZM29.6535 9.66725C29.6535 9.66779 29.6533 9.66779 29.6533 9.66834C29.6528 9.66903 29.6519 9.67078 29.6519 9.67078L29.6537 9.66725C29.6537 9.66725 29.6537 9.66725 29.6536 9.66725H29.6535ZM29.655 9.66426C29.6549 9.66548 29.6548 9.66548 29.6546 9.66548L29.6552 9.66426C29.6552 9.66426 29.6552 9.66426 29.655 9.66426ZM30.8548 9.45906L30.8558 9.45959C30.8558 9.45959 30.8555 9.45959 30.8554 9.45959L30.8549 9.45906H30.8548ZM30.8537 9.45783C30.8528 9.4573 30.852 9.45606 30.8509 9.45553L30.8537 9.45783ZM20.9205 9.41288C20.9207 9.41288 20.9212 9.41341 20.9216 9.41341C20.9225 9.41341 20.9243 9.41394 20.9243 9.41394C20.923 9.41341 20.922 9.41341 20.921 9.41286C20.9199 9.41286 20.9188 9.41217 20.9178 9.41108C20.9178 9.41108 20.9195 9.41217 20.9204 9.41286L20.9205 9.41288ZM20.9143 9.40988L20.9171 9.4111C20.9163 9.4111 20.9152 9.41041 20.9143 9.40988ZM20.9108 9.40811L20.9131 9.40933C20.9124 9.40933 20.9116 9.4088 20.9108 9.40811ZM20.9085 9.40758H20.9086C20.9085 9.40758 20.9085 9.40758 20.9085 9.40758Z" fill="white"/>
</g>
<defs>
<clipPath id="clip0_21_718">
<rect width="141.687" height="60" fill="white"/>
</clipPath>
</defs>
</svg>
