<svg width="159" height="56" viewBox="0 0 159 56" fill="none" xmlns="http://www.w3.org/2000/svg">
<path d="M3.57959 0.0909119V19H1.28982V0.0909119H3.57959Z" fill="#8E8E8E"/>
<path d="M10.0542 10.4688V19H7.87522V4.81818H9.98034V7.03409H10.165C10.4974 6.31392 11.0021 5.73533 11.6792 5.2983C12.3563 4.85512 13.2303 4.63353 14.3014 4.63353C15.2616 4.63353 16.1018 4.8305 16.822 5.22443C17.5421 5.61222 18.1023 6.20313 18.5024 6.99716C18.9024 7.78504 19.1025 8.7822 19.1025 9.98864V19H16.9235V10.1364C16.9235 9.02226 16.6342 8.15436 16.0556 7.53267C15.477 6.90483 14.683 6.59091 13.6735 6.59091C12.978 6.59091 12.3563 6.74172 11.8085 7.04333C11.2668 7.34494 10.839 7.78504 10.5251 8.36364C10.2112 8.94224 10.0542 9.64394 10.0542 10.4688Z" fill="#8E8E8E"/>
<path d="M34.173 4.81818L28.9287 19H26.7128L21.4684 4.81818H23.8321L27.7468 16.1193H27.8946L31.8093 4.81818H34.173Z" fill="#8E8E8E"/>
<path d="M42.4873 19.2955C41.1208 19.2955 39.942 18.9938 38.951 18.3906C37.9662 17.7813 37.206 16.9318 36.6705 15.8423C36.1411 14.7467 35.8765 13.4725 35.8765 12.0199C35.8765 10.5672 36.1411 9.28693 36.6705 8.17898C37.206 7.06487 37.9508 6.19697 38.9049 5.57529C39.8651 4.94745 40.9854 4.63353 42.2657 4.63353C43.0043 4.63353 43.7337 4.75663 44.4539 5.00284C45.174 5.24906 45.8296 5.64915 46.4205 6.20313C47.0114 6.75095 47.4823 7.47727 47.8331 8.3821C48.184 9.28693 48.3594 10.401 48.3594 11.7244V12.6477H37.4276V10.7642H46.1435C46.1435 9.96402 45.9835 9.25 45.6634 8.62216C45.3495 7.99432 44.9001 7.49882 44.3154 7.13566C43.7368 6.77249 43.0536 6.59091 42.2657 6.59091C41.3978 6.59091 40.6468 6.80635 40.0128 7.23722C39.385 7.66194 38.9018 8.21591 38.5633 8.89915C38.2247 9.58239 38.0554 10.3149 38.0554 11.0966V12.3523C38.0554 13.4233 38.2401 14.3312 38.6094 15.076C38.9849 15.8146 39.505 16.3778 40.1698 16.7656C40.8346 17.1473 41.6071 17.3381 42.4873 17.3381C43.0597 17.3381 43.5768 17.2581 44.0384 17.098C44.5062 16.9318 44.9094 16.6856 45.2479 16.3594C45.5865 16.027 45.8481 15.6146 46.0327 15.1222L48.1378 15.7131C47.9162 16.4271 47.5438 17.0549 47.0206 17.5966C46.4974 18.1321 45.8511 18.5507 45.0817 18.8523C44.3123 19.1477 43.4475 19.2955 42.4873 19.2955Z" fill="#8E8E8E"/>
<path d="M61.7195 7.99432L59.7621 8.5483C59.639 8.22207 59.4574 7.90507 59.2174 7.5973C58.9835 7.28338 58.6634 7.02486 58.2571 6.82174C57.8509 6.61861 57.3308 6.51705 56.6968 6.51705C55.8289 6.51705 55.1056 6.7171 54.527 7.11719C53.9546 7.51113 53.6684 8.01279 53.6684 8.62216C53.6684 9.16383 53.8653 9.59162 54.2593 9.90554C54.6532 10.2195 55.2687 10.4811 56.1059 10.6903L58.211 11.2074C59.479 11.5152 60.4238 11.986 61.0455 12.62C61.6672 13.2479 61.978 14.0573 61.978 15.0483C61.978 15.8608 61.7441 16.5871 61.2763 17.2273C60.8147 17.8674 60.1684 18.3722 59.3374 18.7415C58.5064 19.1108 57.5401 19.2955 56.4383 19.2955C54.9918 19.2955 53.7946 18.9815 52.8466 18.3537C51.8987 17.7259 51.2986 16.8087 51.0462 15.6023L53.1144 15.0852C53.3114 15.8485 53.6838 16.4209 54.2316 16.8026C54.7856 17.1842 55.5088 17.375 56.4013 17.375C57.417 17.375 58.2233 17.1596 58.8204 16.7287C59.4236 16.2917 59.7252 15.7685 59.7252 15.1591C59.7252 14.6667 59.5528 14.2543 59.2081 13.9219C58.8634 13.5833 58.3341 13.331 57.6201 13.1648L55.2564 12.6108C53.9577 12.303 53.0036 11.826 52.3942 11.1797C51.791 10.5272 51.4894 9.71165 51.4894 8.73296C51.4894 7.93277 51.7141 7.22491 52.1634 6.60938C52.6189 5.99385 53.2375 5.51066 54.0192 5.1598C54.8071 4.80895 55.6996 4.63353 56.6968 4.63353C58.1002 4.63353 59.202 4.94129 60.0022 5.55682C60.8085 6.17235 61.381 6.98485 61.7195 7.99432Z" fill="#8E8E8E"/>
<path d="M71.4257 4.81818V6.66478H64.0762V4.81818H71.4257ZM66.2183 1.42046H68.3972V14.9375C68.3972 15.553 68.4865 16.0147 68.665 16.3224C68.8497 16.6241 69.0836 16.8272 69.3667 16.9318C69.656 17.0303 69.9607 17.0795 70.2808 17.0795C70.5208 17.0795 70.7178 17.0672 70.8717 17.0426C71.0256 17.0118 71.1487 16.9872 71.241 16.9688L71.6842 18.9261C71.5364 18.9815 71.3302 19.0369 71.0656 19.0923C70.8009 19.1539 70.4654 19.1847 70.0592 19.1847C69.4436 19.1847 68.8404 19.0523 68.2495 18.7876C67.6648 18.523 67.1785 18.1198 66.7907 17.5781C66.4091 17.0365 66.2183 16.3532 66.2183 15.5284V1.42046Z" fill="#8E8E8E"/>
<path d="M87.7772 19.2955C86.4477 19.2955 85.3028 18.9815 84.3426 18.3537C83.3823 17.7259 82.6437 16.861 82.1266 15.7592C81.6096 14.6574 81.3511 13.3987 81.3511 11.983C81.3511 10.5426 81.6158 9.27155 82.1451 8.16975C82.6806 7.06179 83.4254 6.19697 84.3795 5.57529C85.3397 4.94745 86.46 4.63353 87.7403 4.63353C88.7374 4.63353 89.6361 4.81819 90.4363 5.1875C91.2365 5.55682 91.892 6.07387 92.4029 6.73864C92.9138 7.40341 93.2308 8.17898 93.3539 9.06534H91.1749C91.0088 8.41904 90.6394 7.84659 90.067 7.34801C89.5007 6.84328 88.7374 6.59091 87.7772 6.59091C86.9278 6.59091 86.183 6.8125 85.5428 7.25568C84.9088 7.69271 84.4133 8.31132 84.0563 9.11151C83.7055 9.90554 83.5301 10.8381 83.5301 11.9091C83.5301 13.0047 83.7024 13.9588 84.0471 14.7713C84.3979 15.5838 84.8904 16.2147 85.5244 16.6641C86.1645 17.1134 86.9155 17.3381 87.7772 17.3381C88.3435 17.3381 88.8575 17.2396 89.3191 17.0426C89.7808 16.8456 90.1716 16.5625 90.4917 16.1932C90.8118 15.8239 91.0395 15.3807 91.1749 14.8636H93.3539C93.2308 15.7008 92.9261 16.4548 92.4399 17.1257C91.9597 17.7905 91.3227 18.3198 90.5286 18.7138C89.7408 19.1016 88.8236 19.2955 87.7772 19.2955Z" fill="#8E8E8E"/>
<path d="M96.5393 19V4.81818H98.6444V6.96023H98.7921C99.0507 6.25853 99.5184 5.68916 100.196 5.25213C100.873 4.81511 101.636 4.59659 102.485 4.59659C102.645 4.59659 102.845 4.59967 103.085 4.60583C103.326 4.61198 103.507 4.62122 103.63 4.63353V6.84943C103.556 6.83097 103.387 6.80327 103.122 6.76634C102.864 6.72325 102.59 6.70171 102.301 6.70171C101.611 6.70171 100.996 6.84636 100.454 7.13566C99.9185 7.4188 99.4938 7.81274 99.1799 8.31747C98.8721 8.81605 98.7183 9.38542 98.7183 10.0256V19H96.5393Z" fill="#8E8E8E"/>
<path d="M108.048 24.3182C107.679 24.3182 107.35 24.2874 107.06 24.2259C106.771 24.1705 106.571 24.1151 106.46 24.0597L107.014 22.1392C107.543 22.2746 108.011 22.3239 108.417 22.2869C108.824 22.25 109.184 22.0684 109.498 21.7422C109.818 21.4221 110.11 20.902 110.375 20.1818L110.781 19.0739L105.537 4.81818H107.9L111.815 16.1193H111.963L115.878 4.81818H118.241L112.221 21.0682C111.951 21.8007 111.615 22.407 111.215 22.8871C110.815 23.3733 110.35 23.7334 109.821 23.9673C109.298 24.2012 108.707 24.3182 108.048 24.3182Z" fill="#8E8E8E"/>
<path d="M121.117 24.3182V4.81818H123.223V7.07103H123.481C123.641 6.82481 123.863 6.51089 124.146 6.12926C124.435 5.74148 124.848 5.39678 125.383 5.09517C125.925 4.78741 126.657 4.63353 127.58 4.63353C128.775 4.63353 129.827 4.93206 130.738 5.52912C131.649 6.12619 132.36 6.97254 132.871 8.06818C133.382 9.16383 133.637 10.4564 133.637 11.946C133.637 13.4479 133.382 14.7498 132.871 15.8516C132.36 16.9472 131.652 17.7966 130.747 18.3999C129.843 18.9969 128.799 19.2955 127.617 19.2955C126.706 19.2955 125.977 19.1447 125.429 18.843C124.881 18.5353 124.46 18.1875 124.164 17.7997C123.869 17.4058 123.641 17.0795 123.481 16.821H123.296V24.3182H121.117ZM123.259 11.9091C123.259 12.9801 123.416 13.925 123.73 14.7436C124.044 15.5561 124.503 16.1932 125.106 16.6548C125.709 17.1103 126.448 17.3381 127.322 17.3381C128.233 17.3381 128.993 17.098 129.602 16.6179C130.218 16.1316 130.68 15.4792 130.987 14.6605C131.301 13.8357 131.458 12.9186 131.458 11.9091C131.458 10.9119 131.304 10.0133 130.997 9.21307C130.695 8.40673 130.236 7.76965 129.621 7.30185C129.012 6.82789 128.245 6.59091 127.322 6.59091C126.436 6.59091 125.691 6.81558 125.088 7.26492C124.484 7.7081 124.029 8.32979 123.721 9.12997C123.413 9.92401 123.259 10.8504 123.259 11.9091Z" fill="#8E8E8E"/>
<path d="M143.129 4.81818V6.66478H135.779V4.81818H143.129ZM137.921 1.42046H140.1V14.9375C140.1 15.553 140.19 16.0147 140.368 16.3224C140.553 16.6241 140.787 16.8272 141.07 16.9318C141.359 17.0303 141.664 17.0795 141.984 17.0795C142.224 17.0795 142.421 17.0672 142.575 17.0426C142.729 17.0118 142.852 16.9872 142.944 16.9688L143.387 18.9261C143.24 18.9815 143.033 19.0369 142.769 19.0923C142.504 19.1539 142.169 19.1847 141.762 19.1847C141.147 19.1847 140.544 19.0523 139.953 18.7876C139.368 18.523 138.882 18.1198 138.494 17.5781C138.112 17.0365 137.921 16.3532 137.921 15.5284V1.42046Z" fill="#8E8E8E"/>
<path d="M152.015 19.2955C150.735 19.2955 149.612 18.9908 148.645 18.3814C147.685 17.772 146.934 16.9195 146.393 15.8239C145.857 14.7282 145.589 13.4479 145.589 11.983C145.589 10.5057 145.857 9.21615 146.393 8.11435C146.934 7.01255 147.685 6.15696 148.645 5.54759C149.612 4.93821 150.735 4.63353 152.015 4.63353C153.296 4.63353 154.416 4.93821 155.376 5.54759C156.343 6.15696 157.094 7.01255 157.629 8.11435C158.171 9.21615 158.442 10.5057 158.442 11.983C158.442 13.4479 158.171 14.7282 157.629 15.8239C157.094 16.9195 156.343 17.772 155.376 18.3814C154.416 18.9908 153.296 19.2955 152.015 19.2955ZM152.015 17.3381C152.988 17.3381 153.788 17.0888 154.416 16.5902C155.044 16.0916 155.509 15.4361 155.81 14.6236C156.112 13.8111 156.263 12.9309 156.263 11.983C156.263 11.035 156.112 10.1518 155.81 9.3331C155.509 8.51444 155.044 7.85275 154.416 7.34801C153.788 6.84328 152.988 6.59091 152.015 6.59091C151.043 6.59091 150.243 6.84328 149.615 7.34801C148.987 7.85275 148.522 8.51444 148.221 9.3331C147.919 10.1518 147.768 11.035 147.768 11.983C147.768 12.9309 147.919 13.8111 148.221 14.6236C148.522 15.4361 148.987 16.0916 149.615 16.5902C150.243 17.0888 151.043 17.3381 152.015 17.3381Z" fill="#8E8E8E"/>
<path d="M6.94039 50.2955C5.57391 50.2955 4.39517 49.9938 3.40416 49.3906C2.41932 48.7813 1.65914 47.9318 1.12362 46.8423C0.594268 45.7467 0.32959 44.4725 0.32959 43.0199C0.32959 41.5672 0.594268 40.2869 1.12362 39.179C1.65914 38.0649 2.40393 37.197 3.358 36.5753C4.31823 35.9474 5.43849 35.6335 6.71879 35.6335C7.45743 35.6335 8.18684 35.7566 8.90701 36.0028C9.62718 36.2491 10.2827 36.6492 10.8736 37.2031C11.4645 37.7509 11.9354 38.4773 12.2863 39.3821C12.6371 40.2869 12.8125 41.401 12.8125 42.7244V43.6477H1.88073V41.7642H10.5966C10.5966 40.964 10.4366 40.25 10.1165 39.6222C9.8026 38.9943 9.35326 38.4988 8.76851 38.1357C8.18991 37.7725 7.50667 37.5909 6.71879 37.5909C5.8509 37.5909 5.09995 37.8064 4.46595 38.2372C3.83811 38.6619 3.35492 39.2159 3.01638 39.8992C2.67784 40.5824 2.50857 41.3149 2.50857 42.0966V43.3523C2.50857 44.4233 2.69323 45.3312 3.06254 46.076C3.43802 46.8146 3.95814 47.3778 4.62291 47.7656C5.28769 48.1473 6.06018 48.3381 6.94039 48.3381C7.51283 48.3381 8.02987 48.2581 8.49152 48.098C8.95932 47.9318 9.3625 47.6856 9.70104 47.3594C10.0396 47.027 10.3012 46.6146 10.4858 46.1222L12.591 46.7131C12.3694 47.4271 11.997 48.0549 11.4738 48.5966C10.9506 49.1321 10.3043 49.5507 9.53485 49.8523C8.76543 50.1477 7.90061 50.2955 6.94039 50.2955Z" fill="#8E8E8E"/>
<path d="M27.2921 35.8182L22.0478 50H19.8319L14.5876 35.8182H16.9512L20.866 47.1193H21.0137L24.9285 35.8182H27.2921Z" fill="#8E8E8E"/>
<path d="M35.6064 50.2955C34.2399 50.2955 33.0612 49.9938 32.0702 49.3906C31.0853 48.7813 30.3251 47.9318 29.7896 46.8423C29.2603 45.7467 28.9956 44.4725 28.9956 43.0199C28.9956 41.5672 29.2603 40.2869 29.7896 39.179C30.3251 38.0649 31.0699 37.197 32.024 36.5753C32.9842 35.9474 34.1045 35.6335 35.3848 35.6335C36.1234 35.6335 36.8529 35.7566 37.573 36.0028C38.2932 36.2491 38.9487 36.6492 39.5396 37.2031C40.1306 37.7509 40.6014 38.4773 40.9523 39.3821C41.3031 40.2869 41.4786 41.401 41.4786 42.7244V43.6477H30.5467V41.7642H39.2627C39.2627 40.964 39.1026 40.25 38.7825 39.6222C38.4686 38.9943 38.0193 38.4988 37.4345 38.1357C36.8559 37.7725 36.1727 37.5909 35.3848 37.5909C34.5169 37.5909 33.766 37.8064 33.132 38.2372C32.5041 38.6619 32.0209 39.2159 31.6824 39.8992C31.3439 40.5824 31.1746 41.3149 31.1746 42.0966V43.3523C31.1746 44.4233 31.3592 45.3312 31.7286 46.076C32.104 46.8146 32.6242 47.3778 33.2889 47.7656C33.9537 48.1473 34.7262 48.3381 35.6064 48.3381C36.1788 48.3381 36.6959 48.2581 37.1575 48.098C37.6253 47.9318 38.0285 47.6856 38.3671 47.3594C38.7056 47.027 38.9672 46.6146 39.1519 46.1222L41.257 46.7131C41.0354 47.4271 40.663 48.0549 40.1398 48.5966C39.6166 49.1321 38.9703 49.5507 38.2009 49.8523C37.4314 50.1477 36.5666 50.2955 35.6064 50.2955Z" fill="#8E8E8E"/>
<path d="M46.9722 41.4688V50H44.7932V35.8182H46.8983V38.0341H47.083C47.4154 37.3139 47.9201 36.7353 48.5972 36.2983C49.2743 35.8551 50.1483 35.6335 51.2193 35.6335C52.1796 35.6335 53.0198 35.8305 53.7399 36.2244C54.4601 36.6122 55.0202 37.2031 55.4203 37.9972C55.8204 38.785 56.0205 39.7822 56.0205 40.9886V50H53.8415V41.1364C53.8415 40.0223 53.5522 39.1544 52.9736 38.5327C52.395 37.9048 51.601 37.5909 50.5915 37.5909C49.8959 37.5909 49.2743 37.7417 48.7264 38.0433C48.1848 38.3449 47.757 38.785 47.4431 39.3636C47.1291 39.9422 46.9722 40.6439 46.9722 41.4688Z" fill="#8E8E8E"/>
<path d="M60.0022 50V35.8182H62.1812V50H60.0022ZM61.1101 33.4545C60.6854 33.4545 60.3192 33.3099 60.0114 33.0206C59.7098 32.7313 59.559 32.3835 59.559 31.9773C59.559 31.571 59.7098 31.2233 60.0114 30.934C60.3192 30.6447 60.6854 30.5 61.1101 30.5C61.5348 30.5 61.898 30.6447 62.1996 30.934C62.5074 31.2233 62.6613 31.571 62.6613 31.9773C62.6613 32.3835 62.5074 32.7313 62.1996 33.0206C61.898 33.3099 61.5348 33.4545 61.1101 33.4545Z" fill="#8E8E8E"/>
<path d="M68.3511 41.4688V50H66.1721V35.8182H68.2772V38.0341H68.4619C68.7943 37.3139 69.299 36.7353 69.9761 36.2983C70.6532 35.8551 71.5272 35.6335 72.5982 35.6335C73.5585 35.6335 74.3987 35.8305 75.1188 36.2244C75.839 36.6122 76.3991 37.2031 76.7992 37.9972C77.1993 38.785 77.3994 39.7822 77.3994 40.9886V50H75.2204V41.1364C75.2204 40.0223 74.9311 39.1544 74.3525 38.5327C73.7739 37.9048 72.9799 37.5909 71.9704 37.5909C71.2748 37.5909 70.6532 37.7417 70.1053 38.0433C69.5637 38.3449 69.1359 38.785 68.822 39.3636C68.508 39.9422 68.3511 40.6439 68.3511 41.4688Z" fill="#8E8E8E"/>
<path d="M87.1055 55.6136C86.053 55.6136 85.1481 55.4782 84.391 55.2074C83.6339 54.9427 83.003 54.5919 82.4983 54.1548C81.9997 53.724 81.6027 53.2623 81.3072 52.7699L83.043 51.5511C83.24 51.8097 83.4893 52.1051 83.7909 52.4375C84.0925 52.776 84.5049 53.0684 85.0281 53.3146C85.5575 53.567 86.2499 53.6932 87.1055 53.6932C88.2504 53.6932 89.1952 53.4162 89.94 52.8622C90.6848 52.3082 91.0572 51.4403 91.0572 50.2585V47.3778H90.8726C90.7125 47.6364 90.4848 47.9564 90.1893 48.3381C89.9 48.7135 89.4815 49.049 88.9336 49.3445C88.392 49.6338 87.6595 49.7784 86.7362 49.7784C85.5913 49.7784 84.5634 49.5076 83.6524 48.9659C82.7476 48.4242 82.0305 47.6364 81.5011 46.6023C80.9779 45.5682 80.7163 44.3125 80.7163 42.8352C80.7163 41.3826 80.9718 40.1177 81.4826 39.0405C81.9935 37.9572 82.7045 37.12 83.6155 36.5291C84.5264 35.9321 85.579 35.6335 86.7731 35.6335C87.6964 35.6335 88.4289 35.7874 88.9706 36.0952C89.5184 36.3968 89.937 36.7415 90.2263 37.1293C90.5217 37.5109 90.7495 37.8248 90.9095 38.071H91.1311V35.8182H93.2362V50.4063C93.2362 51.625 92.9592 52.616 92.4052 53.3793C91.8574 54.1487 91.1188 54.7119 90.1893 55.0689C89.266 55.4321 88.2381 55.6136 87.1055 55.6136ZM87.0317 47.821C87.9057 47.821 88.6443 47.621 89.2476 47.2209C89.8508 46.8208 90.3093 46.2453 90.6233 45.4943C90.9372 44.7434 91.0942 43.8447 91.0942 42.7983C91.0942 41.7765 90.9403 40.8748 90.6325 40.093C90.3247 39.3113 89.8692 38.6989 89.266 38.2557C88.6628 37.8125 87.918 37.5909 87.0317 37.5909C86.1084 37.5909 85.3389 37.8248 84.7234 38.2926C84.114 38.7604 83.6555 39.3883 83.3477 40.1761C83.0461 40.964 82.8953 41.8381 82.8953 42.7983C82.8953 43.7831 83.0492 44.6541 83.3569 45.4112C83.6709 46.1622 84.1325 46.7531 84.7419 47.184C85.3574 47.6087 86.1207 47.821 87.0317 47.821Z" fill="#8E8E8E"/>
<path d="M109.273 35.1045C107.074 34.6436 105.356 32.9255 104.896 30.7274C104.807 30.3036 104.433 30 104 30C103.567 30 103.193 30.3035 103.104 30.7273C102.644 32.9255 100.926 34.6436 98.7274 35.1043C98.3036 35.1932 98 35.5669 98 35.9999C98 36.433 98.3035 36.8067 98.7274 36.8955C100.926 37.3564 102.644 39.0744 103.104 41.2726C103.193 41.6964 103.567 42 104 42C104.433 42 104.807 41.6965 104.896 41.2726C105.356 39.0744 107.074 37.3564 109.273 36.8957C109.696 36.8068 110 36.4331 110 36.0001C110 35.567 109.696 35.1933 109.273 35.1045Z" fill="#A959AB"/>
</svg>
