<svg width="91" height="50" viewBox="0 0 91 50" fill="none" xmlns="http://www.w3.org/2000/svg">
<g clip-path="url(#clip0_202_2)">
<path d="M47.748 7.68257H49.8061C50.4421 7.68257 50.9329 7.54599 51.2787 7.27265C51.6244 6.99945 51.7974 6.61161 51.7974 6.1097C51.7974 5.57422 51.6273 5.16426 51.2872 4.87985C50.9467 4.59525 50.4531 4.45295 49.8061 4.45295H47.748V7.68261V7.68257ZM45.7231 13.5058V2.56201H49.9735C51.1114 2.56201 52.04 2.89678 52.7597 3.56607C53.4791 4.2354 53.8391 5.10007 53.8391 6.15982C53.8391 7.17513 53.4819 7.99798 52.768 8.62806C52.0539 9.25849 51.1225 9.57351 49.9735 9.57351H47.748V13.5059H45.7231V13.5058Z" fill="white"/>
<path d="M58.5075 8.88738H60.6829L63.0088 13.5058H60.8503L58.5075 8.88738ZM56.918 7.73268H59.0264C59.6622 7.73268 60.1446 7.59887 60.4738 7.33121C60.8026 7.06334 60.9674 6.67293 60.9674 6.15977C60.9674 5.62424 60.8026 5.20583 60.4738 4.90464C60.1446 4.6034 59.6622 4.45285 59.0264 4.45285H56.918V7.73268ZM54.8931 13.5058V2.56201H59.2103C60.3258 2.56201 61.2376 2.90507 61.9464 3.59115C62.6546 4.27722 63.0089 5.15024 63.0089 6.20999C63.0089 7.23651 62.6601 8.06493 61.963 8.69496C61.2657 9.32534 60.3482 9.64041 59.2103 9.64041H56.918V13.5059H54.8931V13.5058Z" fill="white"/>
<path d="M66.5646 5.18097C66.0793 5.86704 65.8367 6.81816 65.8367 8.03409C65.8367 9.25006 66.0765 10.1928 66.5563 10.8621C67.0357 11.5315 67.7051 11.8662 68.5643 11.8662C69.4231 11.8662 70.0898 11.5314 70.5639 10.8621C71.038 10.1928 71.275 9.25011 71.275 8.03409C71.275 6.81816 71.0351 5.86704 70.5556 5.18097C70.0758 4.49484 69.412 4.15178 68.5643 4.15178C67.7163 4.15178 67.05 4.49484 66.5646 5.18097ZM63.7952 8.03409C63.7952 6.20457 64.2273 4.771 65.092 3.73357C65.9563 2.69594 67.114 2.17725 68.5643 2.17725C69.9254 2.17725 71.0575 2.70443 71.9612 3.75865C72.8649 4.81287 73.3167 6.2381 73.3167 8.03409C73.3167 9.86371 72.89 11.2916 72.0364 12.3178C71.1831 13.3443 70.0257 13.8574 68.5643 13.8574C67.1027 13.8574 65.9425 13.3443 65.0838 12.3178C64.2245 11.2916 63.7952 9.86371 63.7952 8.03409H63.7952Z" fill="white"/>
<path d="M47.5356 22.8973H49.5878C50.8224 22.8973 51.4395 22.5014 51.4395 21.7091C51.4395 20.8966 50.8224 20.4902 49.5878 20.4902H47.5356V22.8973ZM47.5356 18.731H49.5878C50.7091 18.731 51.2699 18.3197 51.2699 17.4966C51.2699 17.0853 51.1386 16.7844 50.8764 16.5939C50.614 16.4037 50.1844 16.3084 49.5878 16.3084H47.5356V18.731V18.731ZM51.0845 19.5181V19.7187C51.7533 19.8525 52.2907 20.1329 52.6972 20.5595C53.1033 20.9866 53.3067 21.4986 53.3067 22.0949C53.3067 22.8666 52.9877 23.4864 52.35 23.9544C51.712 24.4226 50.8478 24.6565 49.7576 24.6565H45.6685V14.5649H49.7576C50.8478 14.5649 51.6864 14.8016 52.2727 15.2747C52.8592 15.7479 53.1523 16.3856 53.1523 17.1881C53.1523 17.7951 52.9722 18.3068 52.6124 18.7235C52.252 19.14 51.7429 19.4051 51.0845 19.5182L51.0845 19.5181Z" fill="white"/>
<path d="M54.3557 14.5649H56.223V22.8974H61.7625V24.6565H54.3557V14.5649Z" fill="white"/>
<path d="M64.2545 16.9799C63.807 17.6126 63.5833 18.4895 63.5833 19.6108C63.5833 20.7321 63.8043 21.6013 64.2469 22.2186C64.689 22.8358 65.3063 23.1443 66.0985 23.1443C66.8906 23.1443 67.5051 22.8358 67.9424 22.2186C68.3795 21.6014 68.5982 20.7321 68.5982 19.6108C68.5982 18.4895 68.3769 17.6126 67.9348 16.9799C67.4925 16.3472 66.8802 16.0308 66.0986 16.0308C65.3167 16.0308 64.702 16.3472 64.2546 16.9799H64.2545ZM61.7007 19.6108C61.7007 17.9238 62.0992 16.6018 62.8965 15.6451C63.6938 14.6884 64.7611 14.21 66.0985 14.21C67.3535 14.21 68.3977 14.6962 69.2309 15.6682C70.0643 16.6404 70.4808 17.9546 70.4808 19.6108C70.4808 21.298 70.0873 22.6146 69.3004 23.561C68.5135 24.5076 67.4459 24.9805 66.0985 24.9805C64.7507 24.9805 63.681 24.5076 62.8891 23.561C62.0968 22.6146 61.7007 21.298 61.7007 19.6108V19.6108Z" fill="white"/>
<path d="M79.8472 17.8057L78.0263 18.1606C77.8411 17.4921 77.5529 16.9777 77.1623 16.6176C76.7712 16.2576 76.2928 16.0774 75.7272 16.0774C74.9247 16.0774 74.2971 16.3888 73.8446 17.0111C73.3918 17.6336 73.1657 18.5155 73.1657 19.6574C73.1657 20.7685 73.3918 21.6275 73.8446 22.2344C74.2971 22.8415 74.9248 23.1447 75.7272 23.1447C76.3341 23.1447 76.8459 22.9441 77.2626 22.5428C77.6791 22.1417 77.9439 21.5811 78.0571 20.8609L79.8935 21.2313C79.667 22.4247 79.1784 23.348 78.4275 24.001C77.6766 24.6544 76.7764 24.9809 75.7272 24.9809C74.3692 24.9809 73.289 24.513 72.4868 23.5767C71.6843 22.6408 71.2832 21.3342 71.2832 19.6573C71.2832 17.9499 71.6843 16.6252 72.4868 15.6839C73.289 14.7426 74.3691 14.272 75.7272 14.272C76.6839 14.272 77.5273 14.5782 78.2578 15.1901C78.988 15.8024 79.5178 16.6741 79.8472 17.8056L79.8472 17.8057Z" fill="white"/>
<path d="M80.9424 14.5649H82.8095V19.1324L86.9911 14.5649H89.3058L85.3248 19.1633L89.3058 24.6565H86.7905L83.8433 20.4286L82.8095 21.4471V24.6565H80.9424V14.5649Z" fill="white"/>
<path d="M54.7426 29.4688L52.768 29.8536C52.5672 29.1285 52.2548 28.5709 51.8311 28.1803C51.4069 27.7898 50.8882 27.5944 50.2747 27.5944C49.4047 27.5944 48.724 27.9319 48.2334 28.607C47.7424 29.282 47.497 30.2383 47.497 31.4767C47.497 32.6814 47.7424 33.6131 48.2334 34.2712C48.7239 34.9296 49.4046 35.2585 50.2747 35.2585C50.933 35.2585 51.488 35.0412 51.9398 34.6059C52.3914 34.1707 52.6786 33.563 52.8014 32.782L54.7929 33.1834C54.5474 34.4778 54.0175 35.4789 53.2033 36.1872C52.3887 36.8959 51.4127 37.2499 50.2748 37.2499C48.8023 37.2499 47.6309 36.7424 46.7608 35.7271C45.8906 34.7121 45.4556 33.2954 45.4556 31.4768C45.4556 29.6251 45.8906 28.1887 46.7608 27.1678C47.6309 26.1471 48.8023 25.6367 50.2748 25.6367C51.3122 25.6367 52.2269 25.9689 53.0191 26.6325C53.811 27.2963 54.3856 28.2417 54.7426 29.4689L54.7426 29.4688Z" fill="white"/>
<path d="M62.4566 25.9546H64.4983V36.8984H62.4566V25.9546ZM56.9177 30.3723H63.3266V32.28H56.9177V30.3723ZM55.9304 25.9546H57.9553V36.8984H55.9304V25.9546Z" fill="white"/>
<path d="M68.1124 32.2967H73.3166V34.1876H68.1124V32.2967ZM70.3881 28.6322L67.6438 36.8984H65.4517L69.1498 25.9546H72.2121L75.9268 36.8984H73.7514L70.9737 28.6322L70.7897 27.695H70.5722L70.3881 28.6322Z" fill="white"/>
<path d="M76.8806 25.938H78.9055V36.8986H76.8806V25.938Z" fill="white"/>
<path d="M87.289 25.9546H89.3305V36.8985H86.7032L82.3359 28.9164V36.8985H80.311V25.9546H82.9214L87.289 33.9032V25.9546Z" fill="white"/>
<path d="M51.725 46.2106L56.0865 38.1934H57.3285V47.4245H56.4676V39.2238L52.1201 47.4245H50.9486L46.6295 39.2238V47.4245H45.7544V38.1934H47.0245L51.3579 46.2106L51.5271 46.7329L51.725 46.2106Z" fill="white"/>
<path d="M58.8386 38.1934H66.8276V39.0261H59.7139V42.3996H66.7712V43.2467H59.7139V46.5775H66.8276V47.4246H58.8386V38.1934Z" fill="white"/>
<path d="M68.8601 46.5635H71.7817C72.9768 46.5635 73.8991 46.2366 74.5484 45.5825C75.1977 44.9285 75.5222 43.9947 75.5222 42.7807C75.5222 41.5763 75.1999 40.6494 74.5553 40.0001C73.9107 39.3508 72.9862 39.0261 71.7817 39.0261H68.8601V46.5635ZM67.9849 47.4244V38.1934H71.9371C73.2448 38.1934 74.313 38.6263 75.141 39.492C75.9691 40.3578 76.3834 41.4751 76.3834 42.8442C76.3834 44.2134 75.976 45.3193 75.1623 46.1612C74.3483 47.0036 73.273 47.4244 71.9371 47.4244H67.9849V47.4244Z" fill="white"/>
<path d="M77.6538 38.1934H78.529V47.4245H77.6538V38.1934Z" fill="white"/>
<path d="M81.7329 43.7687H87.9716V44.6014H81.7329V43.7687ZM84.5841 39.3933L80.5471 47.4246H79.5308L84.1748 38.1934H85.4873L90.1594 47.4246H89.1854L85.0779 39.3933L84.9228 38.8568H84.7392L84.5841 39.3933Z" fill="white"/>
<path d="M28.3775 21.5234C28.3766 23.4069 26.8494 24.9341 24.966 24.9349H16.6544C16.3685 24.935 16.1016 25.0784 15.9438 25.317L10.454 32.9854C10.4082 33.0542 10.3309 33.0955 10.2483 33.0955C10.1126 33.0955 10.0022 32.9862 10.001 32.8505L10.0009 14.5502C10.001 12.6664 11.5287 11.1387 13.4125 11.1387H24.966C26.8498 11.1387 28.3775 12.6664 28.3775 14.5502V21.5234ZM29.6016 4.93757e-05H8.9047C3.98625 0.00113564 4.93757e-05 3.98837 4.93757e-05 8.90643L0 45.279C0 49.3907 4.89846 51.5278 7.91215 48.7371L18.6203 37.002C19.1822 36.5005 19.5557 36.0562 20.4704 36.0026H29.6015C34.5181 36.0015 38.5028 32.0157 38.5028 27.0996V27.0974V8.90638C38.5028 8.9051 38.5028 8.90401 38.5028 8.90298C38.5028 3.98684 34.5181 0.00108626 29.602 0H29.6015L29.6016 4.93757e-05Z" fill="white"/>
</g>
<defs>
<clipPath id="clip0_202_2">
<rect width="90.1593" height="50" fill="white"/>
</clipPath>
</defs>
</svg>
