<?xml version="1.0" encoding="UTF-8"?> <svg xmlns="http://www.w3.org/2000/svg" width="26" height="26" viewBox="0 0 100 100" fill="none"> <path d="M62.3266 51.7782C60.5682 50.3364 58.5176 49.7714 56.1747 50.0831L40.5684 52.1386L42.6872 68.2126C42.7505 68.6948 43.1938 69.0357 43.6809 68.9724L58.4104 67.0289C60.7484 66.7221 62.6091 65.6407 63.9876 63.7849C65.366 61.934 65.897 59.8103 65.5803 57.4187C65.2735 55.0806 64.1873 53.1956 62.3266 51.7685V51.7782Z" fill="white"></path> <path d="M58.9131 37.8767C60.2039 36.1377 60.7007 34.1456 60.4036 31.905C60.1162 29.7131 59.0982 27.9498 57.3496 26.6103C55.6448 25.2124 53.7208 24.6571 51.5824 24.9396L38.6113 26.6493C38.0609 26.7223 37.6761 27.224 37.7491 27.7744L39.7267 42.7622L53.6915 40.921C55.8834 40.6336 57.6223 39.6204 58.9131 37.8767Z" fill="white"></path> <path d="M90.5561 56.2107C90.673 54.9881 91.618 53.746 92.2902 51.9341C93.8878 47.6477 92.9965 43.6487 89.7914 40.3852C88.5639 39.1334 88.2766 38.0861 88.7929 36.4349C90.5805 30.7214 87.3706 24.6717 81.6522 22.7331C79.1193 21.8758 77.5314 21.5398 77.0735 20.6971C76.5182 19.6742 77.3999 18.2032 77.4973 18.0035C78.6322 15.7337 78.2084 13.0742 77.1758 10.9651C76.1286 8.82188 67.7945 4.00459 67.7945 4.00459C67.0736 3.60517 66.2163 3.06938 65.3104 2.63587C62.4122 1.25741 59.4555 0.0445574 56.1677 0.000719407C53.0893 -0.0431185 50.3762 1.91984 50.3762 4.98362C50.3762 8.04741 46.689 7.66748 46.689 4.98362C46.689 1.91984 43.9759 -0.0431185 40.8975 0.000719407C37.6096 0.0445574 34.653 1.25741 31.7548 2.63587C30.8489 3.06451 29.9964 3.6003 29.2707 4.00459C29.2707 4.00459 20.9366 8.81701 19.8894 10.9651C18.8616 13.0742 18.433 15.7385 19.5679 18.0035C19.6653 18.1983 20.5469 19.6742 19.9917 20.6971C19.5338 21.5446 17.9459 21.8758 15.413 22.7331C9.69948 24.6717 6.4847 30.7262 8.27231 36.4349C8.78863 38.0861 8.50124 39.1334 7.27378 40.3852C4.06874 43.6487 3.17737 47.6477 4.77502 51.9341C5.45207 53.746 6.39702 54.9832 6.50905 56.2107C6.67466 57.9837 5.7979 59.3475 5.63716 59.2209C3.08969 62.9812 3.71317 68.9481 7.08382 72.3333C8.04825 73.3026 9.24649 74.0625 10.4058 74.8126C11.5943 75.5773 11.8719 76.0011 11.6478 77.3649C10.625 83.6143 14.1612 89.6688 20.1134 91.7584C21.2971 92.1724 22.1202 92.83 22.7778 93.9065C25.6224 98.5776 31.3603 100.916 36.689 99.6639C42.0811 98.3926 46.6792 93.887 46.6792 88.3975C46.6792 85.7136 50.386 85.397 50.386 88.3975C50.386 93.887 54.9841 98.3974 60.3761 99.6639C65.7049 100.921 71.4428 98.5776 74.2874 93.9065C74.945 92.83 75.7681 92.1724 76.9518 91.7584C82.904 89.6688 86.4354 83.6143 85.4174 77.3649C85.1933 76.006 85.4709 75.5773 86.6594 74.8126C87.8187 74.0674 89.0169 73.3026 89.9814 72.3333C93.352 68.9481 93.9706 62.9812 91.428 59.2209C91.2624 59.3427 90.3856 57.9788 90.5561 56.2107ZM71.5207 68.5535C68.6664 72.1434 64.8817 74.2476 60.1716 74.8711L55.2374 75.5189L56.1239 82.2309L51.667 82.8203L51.5209 81.7098L50.7805 76.1082L47.254 76.571L48.1405 83.2831L43.6836 83.8724L42.7971 77.1604L36.0997 78.042C35.5249 78.1199 34.994 77.7108 34.9209 77.136L27.5074 20.8919C27.4392 20.3902 27.7948 19.9275 28.2965 19.8593L34.2487 19.0751L33.3817 12.4897L34.2439 12.3776L37.8386 11.9052L38.7105 18.4906L43.0991 17.9109L42.2272 11.3255L42.8069 11.2476L46.689 10.7361L47.5609 17.3216L50.6733 16.9124C55.2715 16.3036 59.324 17.3216 62.8311 19.9616C66.3917 22.5919 68.4667 26.1525 69.0609 30.6434C69.7477 35.8553 68.1744 40.1806 64.341 43.6146C67.2295 44.5888 69.6113 46.1621 71.4769 48.3394C73.3424 50.5166 74.4773 53.1323 74.8768 56.1815C75.4905 60.838 74.3702 64.9588 71.5159 68.5487L71.5207 68.5535Z" fill="white"></path> </svg> 