<svg width="45" height="45" viewBox="0 0 45 45" fill="none" xmlns="http://www.w3.org/2000/svg">
<path d="M37.1253 43.5938H13.7394C12.7361 43.5937 11.7739 43.1952 11.0645 42.4858C10.3551 41.7764 9.95654 40.8142 9.95654 39.8109V5.18906C9.95654 4.1858 10.3551 3.22363 11.0645 2.51421C11.7739 1.8048 12.7361 1.40625 13.7394 1.40625H24.469C25.4294 1.40821 26.3555 1.76362 27.0706 2.40469L39.5862 13.6547C39.9978 14.0228 40.327 14.4736 40.5523 14.9776C40.7777 15.4816 40.8941 16.0276 40.894 16.5797V39.8109C40.894 40.8118 40.4974 41.7718 39.7911 42.4808C39.0847 43.1898 38.1261 43.59 37.1253 43.5938V43.5938ZM13.7394 4.21875C13.482 4.21875 13.2352 4.32098 13.0532 4.50295C12.8713 4.68492 12.769 4.93172 12.769 5.18906V39.8109C12.769 40.0683 12.8713 40.3151 13.0532 40.4971C13.2352 40.679 13.482 40.7812 13.7394 40.7812H37.1253C37.3826 40.7813 37.6294 40.679 37.8114 40.4971C37.9934 40.3151 38.0956 40.0683 38.0956 39.8109V16.5094C38.0953 16.3554 38.0626 16.2032 37.9996 16.0626C37.9366 15.9221 37.8448 15.7964 37.73 15.6937L25.2144 4.44375C25.0018 4.28014 24.7366 4.20009 24.469 4.21875H13.7394Z" fill="white"/>
<path d="M39.4878 16.7906H27.0987C26.2819 16.7906 25.4986 16.4661 24.9211 15.8886C24.3435 15.311 24.019 14.5277 24.019 13.7109V3.59998H26.8315V13.7109C26.8315 13.7818 26.8597 13.8497 26.9098 13.8998C26.9599 13.9499 27.0279 13.9781 27.0987 13.9781H39.4878V16.7906Z" fill="white"/>
<path d="M31.5283 33.75H20.2783C19.5017 33.75 18.8721 34.3796 18.8721 35.1562C18.8721 35.9329 19.5017 36.5625 20.2783 36.5625H31.5283C32.305 36.5625 32.9346 35.9329 32.9346 35.1562C32.9346 34.3796 32.305 33.75 31.5283 33.75Z" fill="white"/>
<path d="M23.0908 27.6891H20.2783C19.5017 27.6891 18.8721 28.3187 18.8721 29.0953C18.8721 29.872 19.5017 30.5016 20.2783 30.5016H23.0908C23.8675 30.5016 24.4971 29.872 24.4971 29.0953C24.4971 28.3187 23.8675 27.6891 23.0908 27.6891Z" fill="white"/>
<path d="M7.60801 37.4906C6.67791 37.4795 5.78945 37.1032 5.13436 36.4429C4.47926 35.7825 4.11007 34.8911 4.10645 33.9609V11.039C4.10634 10.5177 4.2222 10.0028 4.44564 9.53172C4.66907 9.06064 4.99449 8.64516 5.39832 8.31537C5.80214 7.98557 6.27426 7.74973 6.78048 7.62492C7.28671 7.50011 7.81435 7.48946 8.3252 7.59374L11.3486 8.09999L10.8846 10.9125L7.83301 10.364C7.7227 10.3341 7.60699 10.33 7.49482 10.3519C7.38265 10.3739 7.27703 10.4213 7.18613 10.4906C7.10327 10.5561 7.03622 10.6394 6.98996 10.7343C6.9437 10.8293 6.91943 10.9334 6.91895 11.039V33.9609C6.92102 34.0658 6.94608 34.169 6.99237 34.2632C7.03866 34.3573 7.10505 34.4402 7.18685 34.5059C7.26865 34.5716 7.36387 34.6185 7.4658 34.6434C7.56773 34.6683 7.67388 34.6706 7.77676 34.65L10.9549 34.2281L11.3205 37.0406L8.24082 37.4484C8.032 37.4851 7.81985 37.4992 7.60801 37.4906V37.4906Z" fill="white"/>
</svg>
