<svg width="30" height="30" viewBox="0 0 30 30" fill="none" xmlns="http://www.w3.org/2000/svg">
<g clip-path="url(#clip0_47_396)">
<path d="M26.348 6H22.054L21.554 4.5C21.313 3.77167 20.8484 3.13794 20.2262 2.68906C19.6041 2.24019 18.8562 1.99905 18.089 2H11.911C11.144 1.99942 10.3964 2.24071 9.77451 2.68955C9.1526 3.13838 8.68807 3.77191 8.447 4.5L7.946 6H3.652C2.68375 6.00106 1.75547 6.38616 1.07082 7.07082C0.386162 7.75547 0.00105877 8.68376 0 9.652V24.352C0.00211661 25.3196 0.387687 26.2468 1.07223 26.9306C1.75676 27.6144 2.68445 27.9989 3.652 28H26.352C27.3196 27.9979 28.2468 27.6123 28.9306 26.9278C29.6144 26.2432 29.9989 25.3156 30 24.348V9.648C29.9979 8.68045 29.6123 7.75319 28.9278 7.0694C28.2432 6.38561 27.3156 6.00106 26.348 6V6ZM28 24.348C27.9995 24.786 27.8253 25.2059 27.5156 25.5156C27.2059 25.8253 26.786 25.9995 26.348 26H3.652C3.21402 25.9995 2.79414 25.8253 2.48444 25.5156C2.17475 25.2059 2.00053 24.786 2 24.348V9.648C2.00159 9.21072 2.17627 8.79186 2.48585 8.48303C2.79543 8.1742 3.21472 8.00053 3.652 8H8.667C8.87679 7.99984 9.08122 7.93371 9.25136 7.81095C9.42149 7.6882 9.5487 7.51505 9.615 7.316L10.344 5.129C10.4535 4.80005 10.6638 4.51394 10.9451 4.31128C11.2263 4.10862 11.5643 3.99971 11.911 4H18.089C18.4358 3.99962 18.774 4.10862 19.0553 4.31149C19.3366 4.51437 19.5468 4.80078 19.656 5.13L20.385 7.316C20.4513 7.51505 20.5785 7.6882 20.7486 7.81095C20.9188 7.93371 21.1232 7.99984 21.333 8H26.348C26.786 8.00053 27.2059 8.17475 27.5156 8.48445C27.8253 8.79414 27.9995 9.21403 28 9.652V24.348Z" fill="#6A4BBB"/>
<path d="M15 9C13.5166 9 12.0666 9.43987 10.8332 10.264C9.59986 11.0881 8.63856 12.2594 8.07091 13.6299C7.50325 15.0003 7.35472 16.5083 7.64411 17.9632C7.9335 19.418 8.64781 20.7544 9.6967 21.8033C10.7456 22.8522 12.082 23.5665 13.5368 23.8559C14.9917 24.1453 16.4997 23.9968 17.8701 23.4291C19.2406 22.8614 20.4119 21.9001 21.236 20.6668C22.0601 19.4334 22.5 17.9834 22.5 16.5C22.4979 14.5115 21.707 12.6051 20.301 11.199C18.8949 9.79297 16.9885 9.00212 15 9V9ZM15 22C13.9122 22 12.8488 21.6774 11.9444 21.0731C11.0399 20.4687 10.3349 19.6098 9.91867 18.6048C9.50238 17.5998 9.39347 16.4939 9.60568 15.427C9.8179 14.3601 10.3417 13.3801 11.1109 12.6109C11.8801 11.8417 12.8601 11.3179 13.927 11.1057C14.9939 10.8935 16.0998 11.0024 17.1048 11.4187C18.1098 11.8349 18.9687 12.5399 19.5731 13.4444C20.1774 14.3488 20.5 15.4122 20.5 16.5C20.4984 17.9582 19.9184 19.3562 18.8873 20.3873C17.8562 21.4184 16.4582 21.9984 15 22V22Z" fill="#6A4BBB"/>
<path d="M25 12C25.5523 12 26 11.5523 26 11C26 10.4477 25.5523 10 25 10C24.4477 10 24 10.4477 24 11C24 11.5523 24.4477 12 25 12Z" fill="#6A4BBB"/>
</g>
<defs>
<clipPath id="clip0_47_396">
<rect width="30" height="30" fill="white"/>
</clipPath>
</defs>
</svg>
