<svg width="50" height="36" viewBox="0 0 50 36" fill="none" xmlns="http://www.w3.org/2000/svg">
<path d="M40.6667 12.2332C41.7667 9.46663 43.5 6.73326 45.8167 4.09989C46.55 3.26656 46.65 2.06661 46.05 1.13328C45.5833 0.399945 44.8167 -3.91733e-05 43.9833 -3.91733e-05C43.75 -3.91733e-05 43.5166 0.0165433 43.2833 0.0999599C38.3834 1.53328 26.9333 6.61658 26.6166 22.9166C26.5 29.1999 31.1 34.5999 37.0833 35.2165C40.4 35.5499 43.7 34.4666 46.15 32.2666C48.6 30.0499 50 26.8832 50 23.5832C50 18.0833 46.1 13.2666 40.6667 12.2332Z" fill="#6A4BBB"/>
<path d="M10.4832 35.2165C13.7833 35.5499 17.0833 34.4666 19.5332 32.2666C21.9833 30.0499 23.3833 26.8832 23.3833 23.5833C23.3833 18.0833 19.4833 13.2666 14.0499 12.2332C15.15 9.46663 16.8833 6.73327 19.2 4.09992C19.9333 3.26658 20.0333 2.06663 19.4332 1.1333C18.9666 0.399966 18.1999 -1.82324e-05 17.3666 -1.82324e-05C17.1333 -1.82324e-05 16.8999 0.0165642 16.6666 0.0999809C11.7666 1.5333 0.316584 6.6166 -8.24952e-05 22.9166V23.1499C-8.24952e-05 29.3333 4.54988 34.5999 10.4832 35.2165V35.2165Z" fill="#6A4BBB"/>
</svg>
