<svg width="20" height="20" viewBox="0 0 20 20" fill="none" xmlns="http://www.w3.org/2000/svg">
<path d="M18.7878 8.50742C15.1242 7.7394 12.2607 4.87584 11.4928 1.21229C11.3447 0.505992 10.7219 0 10.0001 0C9.27841 0 8.65545 0.505807 8.50742 1.21219C7.73939 4.87584 4.87594 7.7393 1.21229 8.50723C0.505993 8.65526 0 9.27823 0 9.99991C0 10.7216 0.505901 11.3445 1.21229 11.4926C4.87584 12.2606 7.7393 15.1241 8.50724 18.7877C8.65526 19.494 9.27814 20 9.99991 20C10.7216 20 11.3446 19.4942 11.4926 18.7877C12.2607 15.1241 15.1242 12.2606 18.7877 11.4928C19.494 11.3446 20 10.7218 20 10.0001C20 9.27841 19.4941 8.65545 18.7878 8.50742Z" fill="#A959AB"/>
</svg>
