<svg width="16" height="16" viewBox="0 0 16 16" fill="none" xmlns="http://www.w3.org/2000/svg">
<path d="M15.0302 6.80594C12.0993 6.19152 9.80856 3.90067 9.19421 0.969829C9.07579 0.404794 8.57749 0 8.00007 0C7.42273 0 6.92435 0.404646 6.80593 0.969756C6.19151 3.90067 3.90075 6.19144 0.96983 6.80579C0.404795 6.92421 0 7.42258 0 7.99993C0 8.57727 0.40472 9.07557 0.96983 9.19406C3.90067 9.80849 6.19144 12.0993 6.80579 15.0302C6.92421 15.5952 7.42251 16 7.99993 16C8.57727 16 9.07564 15.5954 9.19406 15.0302C9.80856 12.0993 12.0993 9.80848 15.0302 9.19421C15.5952 9.07572 16 8.57742 16 8.00008C16 7.42273 15.5953 6.92436 15.0302 6.80594Z" fill="#6A4BBB"/>
</svg>
